<svg xmlns="http://www.w3.org/2000/svg" viewBox="0 0 512 512" style="enable-background:new 0 0 512 512"
              xml:space="preserve">
              <circle style="fill:#6a56c8" cx="256" cy="256" r="256" />
              <path style="fill:#594baa"
                d="M510.29 285.71a254.21 254.21 0 0 1-32.83 98.77 255.269 255.269 0 0 1-25.18 35.87 257.075 257.075 0 0 1-45.85 42.81C364.2 493.87 312.22 512 256 512c-7.48 0-14.88-.32-22.2-.95-.32-.03-.63-.05-.95-.08C102.32 499.27 0 389.58 0 256c0-2.88.05-5.75.14-8.61 9.11-4.22 20.21-8.12 33.21-10.55l.69-.12c.4-.07.81-.15 1.22-.22 1.36-.23 2.74-.45 4.15-.65.31-.05.61-.09.92-.13.63-.09 1.27-.17 1.91-.25h.01c5.17-.65 10.61-1.04 16.3-1.14.6-.01 1.2-.01 1.8-.01.95-.02 1.91-.01 2.88 0 .02 0 .04 0 .05.01 5.87.07 12 .47 18.39 1.26 12.19 1.5 25.31 4.42 39.32 9.17h.01c9.73 3.31 19.89 7.5 30.47 12.72 5.93 2.92 11.98 6.17 18.17 9.77l201.17 10.47s15.28-9.69 33.34-12.57c10.55-1.69 22.05-1.04 32 5.23 0 0 43.85 43.6 74.14 15.33z" />
              <path style="fill:#dc4355"
                d="m463.333 173.118 8.549-7.839c.942-.864.799-2.415-.311-3.047a8.032 8.032 0 0 0-6.806-.522l-3.93-4.286a2.965 2.965 0 0 0-4.371 4.007l3.93 4.286a8.032 8.032 0 0 0-.069 6.826c.533 1.163 2.066 1.439 3.008.575z" />
              <path style="fill:#a13243"
                d="M455.72 158.797a2.963 2.963 0 0 1 5.072-1.334l3.931 4.287a8.024 8.024 0 0 1 6.806.521c1.111.632 1.254 2.18.311 3.045l-2.471 2.265c.943-.864.8-2.412-.311-3.045a8.024 8.024 0 0 0-6.806-.521l-3.931-4.287a2.951 2.951 0 0 0-2.601-.931z" />
              <ellipse transform="rotate(-42.515 462.889 170.461)" style="fill:#e27c8d" cx="462.869" cy="170.469"
                rx="1.708" ry="1.128" />
              <path style="fill:#dc4355"
                d="M480.523 98.202 474.7 88.17c-.642-1.105-2.187-1.299-3.043-.349a8.033 8.033 0 0 0-1.969 6.536l-5.03 2.92a2.966 2.966 0 0 0 2.977 5.129l5.03-2.92a8.03 8.03 0 0 0 6.652 1.531c1.249-.272 1.848-1.71 1.206-2.815z" />
              <path style="fill:#a13243"
                d="M464.903 102.566a2.964 2.964 0 0 1-.216-5.241l5.031-2.92a8.022 8.022 0 0 1 1.969-6.536c.856-.95 2.399-.757 3.041.349l1.683 2.899c-.642-1.106-2.185-1.299-3.041-.349a8.03 8.03 0 0 0-1.969 6.536l-5.031 2.92a2.954 2.954 0 0 0-1.467 2.342z" />
              <ellipse transform="rotate(-30.131 477.87 98.08)" style="fill:#e27c8d" cx="477.836" cy="98.087" rx="1.128"
                ry="1.708" />
              <path style="fill:#dc4355"
                d="m461.946 74.746-10.283-5.367c-1.133-.591-2.542.071-2.758 1.331a8.03 8.03 0 0 0 1.829 6.577l-2.691 5.156a2.965 2.965 0 1 0 5.258 2.744l2.691-5.156a8.03 8.03 0 0 0 6.441-2.26c.908-.899.646-2.434-.487-3.025z" />
              <path style="fill:#a13243"
                d="M451.076 86.782a2.965 2.965 0 0 1-2.984-4.315l2.691-5.157a8.025 8.025 0 0 1-1.829-6.576c.216-1.26 1.623-1.922 2.756-1.33l2.971 1.551c-1.134-.592-2.541.07-2.756 1.33a8.024 8.024 0 0 0 1.829 6.576l-2.691 5.157a2.956 2.956 0 0 0 .013 2.764z" />
              <ellipse transform="rotate(-62.439 459.615 76.09)" style="fill:#e27c8d" cx="459.613" cy="76.084"
                rx="1.128" ry="1.708" />
              <path style="fill:#dc4355"
                d="m374.281 151.958 6.585 9.549c.726 1.052 2.281 1.125 3.061.112a8.03 8.03 0 0 0 1.455-6.669l4.787-3.302a2.966 2.966 0 0 0-3.366-4.882l-4.787 3.302a8.035 8.035 0 0 0-6.751-1.01c-1.224.368-1.709 1.848-.984 2.9z" />
              <path style="fill:#a13243"
                d="M389.515 146.393a2.963 2.963 0 0 1 .622 5.208l-4.788 3.302a8.024 8.024 0 0 1-1.455 6.669c-.779 1.014-2.332.941-3.058-.111l-1.903-2.759c.726 1.053 2.279 1.125 3.058.111a8.027 8.027 0 0 0 1.455-6.669l4.788-3.302a2.953 2.953 0 0 0 1.281-2.449z" />
              <ellipse transform="rotate(-34.591 376.985 151.87)" style="fill:#e27c8d" cx="376.969" cy="151.864"
                rx="1.128" ry="1.708" />
              <path style="fill:#dc4355"
                d="m390.307 79.536-9.163 7.112c-1.01.784-.994 2.341.061 3.062a8.031 8.031 0 0 0 6.741 1.077l3.566 4.594a2.964 2.964 0 1 0 4.684-3.636l-3.566-4.594a8.032 8.032 0 0 0 .628-6.797c-.436-1.201-1.941-1.602-2.951-.818z" />
              <path style="fill:#a13243"
                d="M396.721 94.432a2.963 2.963 0 0 1-5.165.915l-3.567-4.595a8.025 8.025 0 0 1-6.74-1.077c-1.056-.721-1.071-2.276-.061-3.06l2.648-2.055c-1.01.784-.995 2.339.061 3.06a8.025 8.025 0 0 0 6.74 1.077l3.567 4.595a2.954 2.954 0 0 0 2.517 1.14z" />
              <ellipse transform="rotate(-37.824 390.53 82.23)" style="fill:#e27c8d" cx="390.552" cy="82.214" rx="1.708"
                ry="1.128" />
              <circle style="fill:#c60053" cx="427.034" cy="124.742" r="46.759" />
              <path style="fill:#970a4b"
                d="M434.624 167.718c-6.691-2.877-9.125-11.148-5.108-17.223a46.537 46.537 0 0 0 7.727-25.754 46.532 46.532 0 0 0-7.726-25.752c-4.017-6.076-1.583-14.348 5.109-17.224l.144-.061a46.127 46.127 0 0 1 5.288-1.882 46.786 46.786 0 0 0-13.023-1.838 46.592 46.592 0 0 0-18.306 3.72c-16.728 7.121-28.454 23.71-28.454 43.037s11.726 35.916 28.454 43.04a46.592 46.592 0 0 0 18.306 3.72c4.52 0 8.89-.642 13.023-1.838a45.937 45.937 0 0 1-5.288-1.882l-.146-.063z" />
              <circle style="fill:#dc4355" cx="400.031" cy="132.191" r="9.113" />
              <path style="fill:#a13243"
                d="M402.476 140.972a9.103 9.103 0 0 1-2.447.333c-5.033 0-9.112-4.081-9.112-9.114a9.111 9.111 0 0 1 11.559-8.779 9.115 9.115 0 0 0 0 17.56z" />
              <circle style="fill:#e27c8d" cx="405.125" cy="130.92" r="2.649" />
              <circle style="fill:#dc4355" cx="445.072" cy="94.741" r="9.113" />
              <path style="fill:#a13243"
                d="M447.518 103.523a9.103 9.103 0 0 1-2.447.333c-5.033 0-9.112-4.081-9.112-9.114a9.111 9.111 0 0 1 11.559-8.779c-3.847 1.067-6.67 4.592-6.67 8.779s2.823 7.713 6.67 8.781z" />
              <circle style="fill:#e27c8d" cx="450.166" cy="93.47" r="2.649" />
              <circle style="fill:#dc4355" cx="407.774" cy="99.669" r="9.113" />
              <path style="fill:#a13243"
                d="M410.219 108.45a9.103 9.103 0 0 1-2.447.333c-5.033 0-9.112-4.081-9.112-9.114a9.111 9.111 0 0 1 11.559-8.779c-3.847 1.067-6.67 4.592-6.67 8.779s2.824 7.714 6.67 8.781z" />
              <circle style="fill:#e27c8d" cx="412.868" cy="98.397" r="2.649" />
              <circle style="fill:#dc4355" cx="440.168" cy="121.886" r="6.296" />
              <path style="fill:#a13243"
                d="M441.857 127.953a6.296 6.296 0 1 1 0-12.132 6.294 6.294 0 0 0-4.608 6.065 6.3 6.3 0 0 0 4.608 6.067z" />
              <circle style="fill:#e27c8d" cx="443.687" cy="121.008" r="1.83" />
              <g>
                <circle style="fill:#dc4355" cx="422.014" cy="123.079" r="6.296" />
                <path style="fill:#a13243"
                  d="M423.704 129.145a6.296 6.296 0 1 1 0-12.132 6.297 6.297 0 0 0 0 12.132z" />
                <circle style="fill:#e27c8d" cx="425.534" cy="122.2" r="1.83" />
              </g>
              <g>
                <circle style="fill:#dc4355" cx="412.809" cy="155.074" r="6.296" />
                <path style="fill:#a13243" d="M414.498 161.14a6.296 6.296 0 1 1 0-12.132 6.298 6.298 0 0 0 0 12.132z" />
                <circle style="fill:#e27c8d" cx="416.328" cy="154.195" r="1.83" />
              </g>
              <circle style="fill:#dc4355" cx="436.147" cy="148.954" r="7.193" />
              <path style="fill:#a13243" d="M438.077 155.885a7.193 7.193 0 1 1 0-13.86 7.194 7.194 0 0 0 0 13.86z" />
              <circle style="fill:#e27c8d" cx="440.168" cy="147.951" r="2.091" />
              <circle style="fill:#dc4355" cx="459.841" cy="139.518" r="7.193" />
              <path style="fill:#a13243" d="M461.771 146.449a7.193 7.193 0 1 1 0-13.86 7.195 7.195 0 0 0 0 13.86z" />
              <circle style="fill:#e27c8d" cx="463.861" cy="138.514" r="2.091" />
              <circle style="fill:#dc4355" cx="456.902" cy="111.44" r="7.193" />
              <path style="fill:#a13243" d="M458.832 118.371a7.193 7.193 0 1 1 0-13.86 7.195 7.195 0 0 0 0 13.86z" />
              <circle style="fill:#e27c8d" cx="460.923" cy="110.437" r="2.091" />
              <g>
                <path style="fill:#dc4355"
                  d="m424.669 65.379-11.365 2.319c-1.252.256-1.928 1.658-1.302 2.772a8.032 8.032 0 0 0 5.566 3.951l1.163 5.698a2.964 2.964 0 1 0 5.81-1.186l-1.163-5.698a8.027 8.027 0 0 0 3.573-5.816c.142-1.27-1.029-2.295-2.282-2.04z" />
                <path style="fill:#a13243"
                  d="M423.823 81.575a2.963 2.963 0 0 1-5.036-1.467l-1.163-5.699a8.022 8.022 0 0 1-5.566-3.951c-.627-1.114.047-2.515 1.3-2.77l3.284-.67c-1.253.256-1.928 1.656-1.3 2.77a8.027 8.027 0 0 0 5.566 3.951l1.163 5.699a2.953 2.953 0 0 0 1.752 2.137z" />
                <ellipse transform="rotate(-11.536 423.75 67.926)" style="fill:#e27c8d" cx="423.703" cy="67.889"
                  rx="1.708" ry="1.128" />
              </g>
              <g>
                <path style="fill:#dc4355"
                  d="m371.394 110.489-1.509 11.501c-.166 1.267.94 2.363 2.197 2.133a8.031 8.031 0 0 0 5.549-3.976l5.766.757a2.965 2.965 0 1 0 .772-5.88l-5.766-.757a8.033 8.033 0 0 0-4.335-5.273c-1.157-.546-2.508.228-2.674 1.495z" />
                <path style="fill:#a13243"
                  d="M386.431 116.564a2.963 2.963 0 0 1-3.028 4.283l-5.767-.757a8.026 8.026 0 0 1-5.548 3.976c-1.258.23-2.362-.864-2.196-2.132l.436-3.323c-.166 1.268.938 2.362 2.196 2.132a8.024 8.024 0 0 0 5.548-3.976l5.767.757a2.951 2.951 0 0 0 2.592-.96z" />
                <ellipse transform="rotate(-82.525 373.453 112.22)" style="fill:#e27c8d" cx="373.452" cy="112.22"
                  rx="1.708" ry="1.128" />
              </g>
              <g>
                <path style="fill:#dc4355"
                  d="M485.053 135.348v-11.599c0-1.278-1.239-2.221-2.456-1.829a8.029 8.029 0 0 0-4.984 4.664h-5.816a2.965 2.965 0 0 0 0 5.93h5.816a8.031 8.031 0 0 0 4.984 4.664c1.217.391 2.456-.551 2.456-1.83z" />
                <path style="fill:#a13243"
                  d="M469.353 131.281a2.964 2.964 0 0 1 2.444-4.641h5.817a8.023 8.023 0 0 1 4.984-4.664c1.217-.392 2.455.549 2.455 1.828v3.352c0-1.279-1.238-2.22-2.455-1.828a8.023 8.023 0 0 0-4.984 4.664h-5.817a2.955 2.955 0 0 0-2.444 1.289z" />
                <ellipse style="fill:#e27c8d" cx="482.788" cy="133.9" rx="1.128" ry="1.708" />
              </g>
              <g>
                <path style="fill:#dc4355"
                  d="m439.536 183.148-11.56.948c-1.274.105-2.315-1.054-2.024-2.298a8.032 8.032 0 0 1 4.241-5.349l-.475-5.796a2.966 2.966 0 0 1 5.911-.485l.475 5.796a8.03 8.03 0 0 1 5.056 4.586c.488 1.182-.35 2.494-1.624 2.598z" />
                <path style="fill:#a13243"
                  d="M434.199 167.833a2.964 2.964 0 0 0-4.426 2.816l.476 5.797a8.027 8.027 0 0 0-4.241 5.349c-.291 1.245.748 2.401 2.023 2.297l3.341-.274c-1.275.105-2.314-1.052-2.023-2.297a8.027 8.027 0 0 1 4.241-5.349l-.476-5.797a2.953 2.953 0 0 1 1.085-2.542z" />
                <ellipse transform="rotate(-4.692 437.714 180.937)" style="fill:#e27c8d" cx="437.907" cy="181.009"
                  rx="1.708" ry="1.128" />
              </g>
              <g>
                <path style="fill:#dc4355"
                  d="m401.804 179.995-10.169-5.579c-1.121-.615-1.351-2.155-.423-3.033a8.027 8.027 0 0 1 6.486-2.126l2.797-5.099a2.965 2.965 0 1 1 5.199 2.853l-2.797 5.099a8.03 8.03 0 0 1 1.692 6.613c-.242 1.254-1.664 1.887-2.785 1.272z" />
                <path style="fill:#a13243"
                  d="M405.79 164.274a2.964 2.964 0 0 0-5.245-.09l-2.798 5.1a8.023 8.023 0 0 0-6.486 2.126c-.929.878-.699 2.416.422 3.031l2.939 1.612c-1.121-.615-1.351-2.153-.422-3.031a8.024 8.024 0 0 1 6.486-2.126l2.798-5.1a2.954 2.954 0 0 1 2.306-1.522z" />
                <ellipse transform="rotate(-61.249 401.636 177.318)" style="fill:#e27c8d" cx="401.624" cy="177.312"
                  rx="1.128" ry="1.708" />
              </g>
              <g>
                <path style="fill:#dc4355"
                  d="m173.732 461.559 6.567-6.022c.724-.664.614-1.855-.239-2.34a6.168 6.168 0 0 0-5.228-.401l-3.019-3.293a2.278 2.278 0 0 0-3.358 3.078l3.019 3.293a6.17 6.17 0 0 0-.053 5.243c.41.893 1.587 1.105 2.311.442z" />
                <path style="fill:#a13243"
                  d="M167.884 450.558a2.277 2.277 0 0 1 3.897-1.025l3.02 3.293a6.164 6.164 0 0 1 5.228.401c.854.486.963 1.675.239 2.339l-1.898 1.74c.724-.664.614-1.853-.239-2.339a6.164 6.164 0 0 0-5.228-.4l-3.02-3.293a2.27 2.27 0 0 0-1.999-.716z" />
                <ellipse transform="rotate(-42.515 173.394 459.534)" style="fill:#e27c8d" cx="173.376" cy="459.524"
                  rx="1.312" ry=".866" />
                <path style="fill:#dc4355"
                  d="m186.937 404.011-4.473-7.706c-.493-.849-1.68-.997-2.337-.268a6.17 6.17 0 0 0-1.513 5.021l-3.864 2.243a2.277 2.277 0 1 0 2.287 3.939l3.864-2.243a6.167 6.167 0 0 0 5.11 1.176c.959-.209 1.419-1.313.926-2.162z" />
                <path style="fill:#a13243"
                  d="M174.938 407.363a2.277 2.277 0 0 1-.166-4.026l3.864-2.243a6.167 6.167 0 0 1 1.512-5.021c.657-.73 1.842-.582 2.336.268l1.293 2.227c-.493-.85-1.678-.998-2.336-.268a6.165 6.165 0 0 0-1.512 5.021l-3.864 2.243a2.27 2.27 0 0 0-1.127 1.799z" />
                <ellipse transform="rotate(-30.131 184.895 403.943)" style="fill:#e27c8d" cx="184.873" cy="403.922"
                  rx=".866" ry="1.312" />
                <path style="fill:#dc4355"
                  d="m172.666 385.993-7.899-4.123c-.87-.454-1.953.055-2.119 1.022a6.17 6.17 0 0 0 1.405 5.052l-2.067 3.96a2.278 2.278 0 0 0 4.038 2.108l2.067-3.96a6.169 6.169 0 0 0 4.948-1.736c.699-.69.498-1.869-.373-2.323z" />
                <path style="fill:#a13243"
                  d="M164.316 395.239a2.276 2.276 0 0 1-2.291-3.314l2.067-3.961a6.168 6.168 0 0 1-1.405-5.052c.166-.968 1.246-1.476 2.117-1.022l2.283 1.191c-.871-.455-1.952.054-2.117 1.022a6.162 6.162 0 0 0 1.405 5.052l-2.067 3.961a2.268 2.268 0 0 0 .008 2.123z" />
                <ellipse transform="rotate(-62.439 170.87 387.025)" style="fill:#e27c8d" cx="170.874" cy="387.021"
                  rx=".866" ry="1.312" />
                <path style="fill:#dc4355"
                  d="m105.325 445.304 5.058 7.335c.557.808 1.752.864 2.351.086a6.172 6.172 0 0 0 1.118-5.123l3.678-2.536a2.277 2.277 0 1 0-2.586-3.75l-3.678 2.536a6.173 6.173 0 0 0-5.186-.776c-.939.283-1.312 1.42-.755 2.228z" />
                <path style="fill:#a13243"
                  d="M117.027 441.03a2.277 2.277 0 0 1 .478 4.001l-3.678 2.537a6.161 6.161 0 0 1-1.118 5.123c-.599.779-1.792.723-2.349-.086l-1.462-2.12c.558.809 1.751.864 2.349.086a6.168 6.168 0 0 0 1.118-5.123l3.678-2.537a2.266 2.266 0 0 0 .984-1.881z" />
                <ellipse transform="rotate(-34.591 107.396 445.25)" style="fill:#e27c8d" cx="107.39" cy="445.232"
                  rx=".866" ry="1.312" />
                <path style="fill:#dc4355"
                  d="m117.636 389.672-7.038 5.464c-.776.602-.764 1.798.047 2.352a6.172 6.172 0 0 0 5.178.828l2.739 3.529a2.278 2.278 0 0 0 3.599-2.793l-2.739-3.529a6.168 6.168 0 0 0 .482-5.221c-.337-.924-1.492-1.232-2.268-.63z" />
                <path style="fill:#a13243"
                  d="M122.563 401.115a2.277 2.277 0 0 1-3.968.702l-2.74-3.53a6.168 6.168 0 0 1-5.178-.827c-.811-.554-.823-1.748-.047-2.35l2.034-1.579c-.776.602-.764 1.797.047 2.35a6.164 6.164 0 0 0 5.178.827l2.74 3.53a2.265 2.265 0 0 0 1.934.877z" />
                <ellipse transform="rotate(-37.824 117.798 391.717)" style="fill:#e27c8d" cx="117.824" cy="391.73"
                  rx="1.312" ry=".866" />
                <circle style="fill:#c60053" cx="145.848" cy="424.398" r="35.919" />
                <path style="fill:#970a4b"
                  d="M151.678 457.411c-5.14-2.21-7.009-8.563-3.923-13.23a35.748 35.748 0 0 0 5.936-19.783c0-7.31-2.184-14.109-5.935-19.782-3.086-4.667-1.216-11.022 3.924-13.231l.11-.047a35.455 35.455 0 0 1 4.062-1.446 35.932 35.932 0 0 0-10.004-1.412 35.786 35.786 0 0 0-14.062 2.858c-12.85 5.47-21.857 18.213-21.857 33.06s9.008 27.589 21.857 33.062a35.786 35.786 0 0 0 14.062 2.858c3.472 0 6.829-.493 10.004-1.412a35.078 35.078 0 0 1-4.174-1.495z" />
                <g>
                  <circle style="fill:#dc4355" cx="125.105" cy="424.353" r="7" />
                  <path style="fill:#a13243" d="M126.984 431.098a7 7 0 1 1 0-13.49 7 7 0 0 0 0 13.49z" />
                  <circle style="fill:#e27c8d" cx="129.018" cy="423.376" r="2.035" />
                </g>
                <g>
                  <circle style="fill:#dc4355" cx="163.618" cy="424.398" r="7" />
                  <path style="fill:#a13243" d="M165.496 431.143a7 7 0 1 1 0-13.49 7 7 0 0 0 0 13.49z" />
                  <circle style="fill:#e27c8d" cx="167.531" cy="423.421" r="2.035" />
                </g>
                <g>
                  <circle style="fill:#dc4355" cx="144.593" cy="403.922" r="4.836" />
                  <path style="fill:#a13243"
                    d="M145.891 408.582a4.837 4.837 0 1 1 0-9.319 4.837 4.837 0 0 0 0 9.319z" />
                  <circle style="fill:#e27c8d" cx="147.297" cy="403.247" r="1.406" />
                </g>
                <g>
                  <circle style="fill:#dc4355" cx="145.795" cy="445.232" r="4.836" />
                  <path style="fill:#a13243"
                    d="M147.093 449.892a4.837 4.837 0 1 1 0-9.319 4.837 4.837 0 0 0 0 9.319z" />
                  <circle style="fill:#e27c8d" cx="148.498" cy="444.557" r="1.406" />
                </g>
                <g>
                  <path style="fill:#dc4355"
                    d="m144.032 378.797-8.73 1.781c-.962.196-1.481 1.274-1 2.13a6.17 6.17 0 0 0 4.276 3.035l.893 4.377a2.277 2.277 0 1 0 4.463-.911l-.893-4.377a6.171 6.171 0 0 0 2.745-4.468c.108-.975-.792-1.763-1.754-1.567z" />
                  <path style="fill:#a13243"
                    d="M143.382 391.239a2.276 2.276 0 0 1-3.868-1.127l-.893-4.378a6.167 6.167 0 0 1-4.276-3.035c-.482-.856.036-1.932.999-2.128l2.523-.515c-.963.196-1.481 1.272-.999 2.128a6.167 6.167 0 0 0 4.276 3.035l.893 4.378a2.264 2.264 0 0 0 1.345 1.642z" />
                  <ellipse transform="rotate(-11.536 143.281 380.782)" style="fill:#e27c8d" cx="143.289" cy="380.725"
                    rx="1.312" ry=".866" />
                </g>
                <g>
                  <path style="fill:#dc4355"
                    d="m103.107 413.449-1.159 8.834c-.128.974.722 1.815 1.688 1.639a6.169 6.169 0 0 0 4.262-3.054l4.429.581a2.278 2.278 0 0 0 .593-4.517l-4.429-.581a6.168 6.168 0 0 0-3.33-4.05c-.888-.419-1.926.175-2.054 1.148z" />
                  <path style="fill:#a13243"
                    d="M114.659 418.116a2.277 2.277 0 0 1-2.326 3.29l-4.43-.581a6.164 6.164 0 0 1-4.262 3.054c-.966.177-1.815-.664-1.687-1.638l.335-2.553c-.128.974.721 1.814 1.687 1.638a6.164 6.164 0 0 0 4.262-3.054l4.43.581a2.268 2.268 0 0 0 1.991-.737z" />
                  <ellipse transform="rotate(-82.525 104.689 414.78)" style="fill:#e27c8d" cx="104.688" cy="414.779"
                    rx="1.312" ry=".866" />
                </g>
                <g>
                  <path style="fill:#dc4355"
                    d="M190.417 432.545v-8.91c0-.982-.952-1.706-1.887-1.405a6.17 6.17 0 0 0-3.829 3.583h-4.467a2.278 2.278 0 0 0 0 4.556h4.467a6.17 6.17 0 0 0 3.829 3.583c.935.299 1.887-.425 1.887-1.407z" />
                  <path style="fill:#a13243"
                    d="M178.356 429.421a2.277 2.277 0 0 1 1.878-3.565h4.468a6.168 6.168 0 0 1 3.828-3.583c.935-.301 1.885.422 1.885 1.404v2.575c0-.982-.951-1.705-1.885-1.404a6.16 6.16 0 0 0-3.828 3.583h-4.468c-.78 0-1.47.392-1.878.99z" />
                  <ellipse style="fill:#e27c8d" cx="188.676" cy="431.433" rx=".866" ry="1.312" />
                </g>
                <g>
                  <path style="fill:#dc4355"
                    d="m155.452 469.264-8.88.729c-.979.08-1.778-.809-1.555-1.766a6.171 6.171 0 0 1 3.258-4.109l-.365-4.452a2.277 2.277 0 1 1 4.54-.372l.365 4.452a6.17 6.17 0 0 1 3.884 3.523c.375.906-.268 1.915-1.247 1.995z" />
                  <path style="fill:#a13243"
                    d="M151.352 457.499a2.277 2.277 0 0 0-3.4 2.163l.365 4.453a6.169 6.169 0 0 0-3.258 4.109c-.224.956.575 1.845 1.554 1.764l2.566-.211c-.979.08-1.777-.808-1.554-1.764a6.166 6.166 0 0 1 3.258-4.109l-.365-4.453a2.271 2.271 0 0 1 .834-1.952z" />
                  <ellipse transform="rotate(-4.692 154.125 467.418)" style="fill:#e27c8d" cx="154.201" cy="467.62"
                    rx="1.312" ry=".866" />
                </g>
                <g>
                  <path style="fill:#dc4355"
                    d="m126.467 466.842-7.812-4.286c-.861-.472-1.038-1.655-.325-2.33a6.166 6.166 0 0 1 4.983-1.633l2.149-3.917a2.277 2.277 0 1 1 3.993 2.191l-2.149 3.917a6.171 6.171 0 0 1 1.3 5.08c-.185.963-1.278 1.45-2.139.978z" />
                  <path style="fill:#a13243"
                    d="M129.529 454.765a2.277 2.277 0 0 0-4.028-.069l-2.149 3.917a6.17 6.17 0 0 0-4.983 1.633c-.714.675-.537 1.856.324 2.328l2.257 1.238c-.861-.473-1.038-1.654-.324-2.328a6.161 6.161 0 0 1 4.983-1.633l2.149-3.917a2.27 2.27 0 0 1 1.771-1.169z" />
                  <ellipse transform="rotate(-61.249 126.332 464.795)" style="fill:#e27c8d" cx="126.329" cy="464.78"
                    rx=".866" ry="1.312" />
                </g>
              </g>
              <g>
                <path style="fill:#dc4355"
                  d="m385.059 463.467 4.49-4.117c.495-.454.42-1.268-.164-1.6a4.221 4.221 0 0 0-3.575-.274l-2.064-2.251a1.556 1.556 0 1 0-2.295 2.105l2.064 2.251a4.215 4.215 0 0 0-.036 3.585c.28.609 1.085.754 1.58.301z" />
                <path style="fill:#a13243"
                  d="M381.061 455.945a1.557 1.557 0 0 1 2.664-.701l2.065 2.252a4.212 4.212 0 0 1 3.574.274c.584.332.659 1.145.164 1.599l-1.298 1.19c.495-.454.42-1.267-.164-1.599a4.216 4.216 0 0 0-3.574-.274l-2.065-2.252a1.552 1.552 0 0 0-1.366-.489z" />
                <ellipse transform="rotate(-42.515 384.841 462.079)" style="fill:#e27c8d" cx="384.815" cy="462.075"
                  rx=".897" ry=".592" />
                <path style="fill:#dc4355"
                  d="m394.087 424.121-3.058-5.269c-.337-.581-1.149-.682-1.598-.183a4.218 4.218 0 0 0-1.034 3.433l-2.642 1.533a1.557 1.557 0 1 0 1.564 2.694l2.642-1.533a4.216 4.216 0 0 0 3.494.804c.655-.144.969-.899.632-1.479z" />
                <path style="fill:#a13243"
                  d="M385.884 426.413a1.557 1.557 0 0 1-.113-2.753l2.642-1.534a4.215 4.215 0 0 1 1.034-3.433c.449-.499 1.26-.398 1.597.183l.884 1.522c-.337-.581-1.147-.682-1.597-.183a4.214 4.214 0 0 0-1.034 3.433l-2.642 1.534a1.553 1.553 0 0 0-.771 1.231z" />
                <ellipse transform="rotate(-30.131 392.712 424.078)" style="fill:#e27c8d" cx="392.676" cy="424.06"
                  rx=".592" ry=".897" />
                <path style="fill:#dc4355"
                  d="m384.33 411.802-5.401-2.819c-.595-.311-1.335.037-1.449.699a4.22 4.22 0 0 0 .96 3.454l-1.413 2.708a1.558 1.558 0 0 0 2.761 1.441l1.413-2.708a4.219 4.219 0 0 0 3.383-1.187c.479-.471.342-1.277-.254-1.588z" />
                <path style="fill:#a13243"
                  d="M378.621 418.123a1.557 1.557 0 0 1-1.567-2.266l1.414-2.708a4.213 4.213 0 0 1-.96-3.454c.113-.662.852-1.009 1.448-.699l1.561.815c-.595-.311-1.334.037-1.448.699a4.22 4.22 0 0 0 .96 3.454l-1.414 2.708a1.551 1.551 0 0 0 .006 1.451z" />
                <ellipse transform="rotate(-62.439 383.102 412.512)" style="fill:#e27c8d" cx="383.105" cy="412.505"
                  rx=".592" ry=".897" />
                <path style="fill:#dc4355"
                  d="m338.289 452.354 3.458 5.015c.381.553 1.198.591 1.607.059a4.215 4.215 0 0 0 .764-3.503l2.514-1.734a1.557 1.557 0 0 0-1.768-2.564l-2.514 1.734a4.217 4.217 0 0 0-3.546-.53c-.641.193-.896.97-.515 1.523z" />
                <path style="fill:#a13243"
                  d="M346.29 449.431a1.556 1.556 0 0 1 .327 2.735l-2.515 1.734a4.216 4.216 0 0 1-.764 3.503c-.409.532-1.225.494-1.606-.059l-.999-1.449c.381.553 1.197.591 1.606.059a4.215 4.215 0 0 0 .764-3.503l2.515-1.734a1.55 1.55 0 0 0 .672-1.286z" />
                <ellipse transform="rotate(-34.591 339.716 452.322)" style="fill:#e27c8d" cx="339.701" cy="452.304"
                  rx=".592" ry=".897" />
                <path style="fill:#dc4355"
                  d="m346.706 414.318-4.812 3.735c-.53.412-.522 1.229.032 1.608a4.217 4.217 0 0 0 3.54.566l1.873 2.413a1.557 1.557 0 1 0 2.46-1.91l-1.873-2.413a4.219 4.219 0 0 0 .33-3.57c-.229-.63-1.02-.841-1.55-.429z" />
                <path style="fill:#a13243"
                  d="M350.075 422.141a1.557 1.557 0 0 1-2.713.481l-1.873-2.413a4.214 4.214 0 0 1-3.54-.566c-.554-.379-.563-1.195-.032-1.607l1.391-1.079c-.531.412-.522 1.228.032 1.607a4.214 4.214 0 0 0 3.54.566l1.873 2.413c.327.421.828.628 1.322.598z" />
                <ellipse transform="rotate(-37.824 346.797 415.723)" style="fill:#e27c8d" cx="346.835" cy="415.724"
                  rx=".897" ry=".592" />
                <circle style="fill:#c60053" cx="365.995" cy="438.06" r="24.558" />
                <path style="fill:#970a4b"
                  d="M369.981 460.631c-3.514-1.511-4.792-5.855-2.682-9.046a24.439 24.439 0 0 0 4.058-13.526c0-4.998-1.493-9.646-4.058-13.525-2.11-3.191-.832-7.536 2.683-9.046l.075-.032a24.198 24.198 0 0 1 2.777-.988 24.58 24.58 0 0 0-6.84-.965c-3.412 0-6.662.696-9.614 1.954-8.786 3.74-14.944 12.452-14.944 22.603 0 10.15 6.159 18.863 14.944 22.604a24.467 24.467 0 0 0 9.614 1.954 24.58 24.58 0 0 0 6.84-.965 24.13 24.13 0 0 1-2.853-1.022z" />
                <g>
                  <circle style="fill:#dc4355" cx="351.813" cy="438.029" r="4.786" />
                  <path style="fill:#a13243"
                    d="M353.097 442.641a4.786 4.786 0 1 1 0-9.222 4.787 4.787 0 0 0 0 9.222z" />
                  <circle style="fill:#e27c8d" cx="354.488" cy="437.361" r="1.391" />
                </g>
                <g>
                  <circle style="fill:#dc4355" cx="378.144" cy="438.06" r="4.786" />
                  <path style="fill:#a13243"
                    d="M379.428 442.672a4.786 4.786 0 1 1 0-9.222 4.787 4.787 0 0 0 0 9.222z" />
                  <circle style="fill:#e27c8d" cx="380.82" cy="437.392" r="1.391" />
                </g>
                <g>
                  <circle style="fill:#dc4355" cx="365.137" cy="424.06" r="3.307" />
                  <path style="fill:#a13243"
                    d="M366.024 427.246a3.307 3.307 0 1 1 0-6.371 3.306 3.306 0 0 0 0 6.371z" />
                  <circle style="fill:#e27c8d" cx="366.985" cy="423.599" r=".961" />
                </g>
                <g>
                  <circle style="fill:#dc4355" cx="365.958" cy="452.304" r="3.307" />
                  <path style="fill:#a13243" d="M366.846 455.49a3.307 3.307 0 1 1 0-6.371 3.306 3.306 0 0 0 0 6.371z" />
                  <circle style="fill:#e27c8d" cx="367.807" cy="451.843" r=".961" />
                </g>
                <g>
                  <path style="fill:#dc4355"
                    d="m364.753 406.882-5.969 1.218c-.658.134-1.013.871-.684 1.456a4.217 4.217 0 0 0 2.923 2.075l.611 2.993a1.556 1.556 0 1 0 3.051-.623l-.611-2.993a4.219 4.219 0 0 0 1.877-3.055c.075-.666-.54-1.205-1.198-1.071z" />
                  <path style="fill:#a13243"
                    d="M364.309 415.389a1.557 1.557 0 0 1-2.645-.77l-.611-2.993a4.212 4.212 0 0 1-2.923-2.075c-.329-.585.025-1.321.683-1.455l1.725-.352c-.658.134-1.012.87-.683 1.455a4.214 4.214 0 0 0 2.923 2.075l.611 2.993c.106.522.463.93.92 1.122z" />
                  <ellipse transform="rotate(-11.536 364.263 408.275)" style="fill:#e27c8d" cx="364.245" cy="408.201"
                    rx=".897" ry=".592" />
                </g>
                <g>
                  <path style="fill:#dc4355"
                    d="m336.773 430.574-.793 6.04c-.087.666.494 1.241 1.154 1.121a4.219 4.219 0 0 0 2.914-2.088l3.028.397a1.558 1.558 0 0 0 .406-3.088l-3.028-.397a4.217 4.217 0 0 0-2.277-2.769c-.607-.288-1.317.119-1.404.784z" />
                  <path style="fill:#a13243"
                    d="M344.67 433.765a1.556 1.556 0 0 1-1.59 2.249l-3.029-.397a4.213 4.213 0 0 1-2.914 2.088c-.66.121-1.241-.454-1.153-1.12l.229-1.745c-.087.666.493 1.241 1.153 1.12a4.216 4.216 0 0 0 2.914-2.088l3.029.397a1.55 1.55 0 0 0 1.361-.504z" />
                  <ellipse transform="rotate(-82.525 337.855 431.484)" style="fill:#e27c8d" cx="337.854" cy="431.483"
                    rx=".897" ry=".592" />
                </g>
                <g>
                  <path style="fill:#dc4355"
                    d="M396.467 443.63v-6.092c0-.671-.651-1.166-1.29-.961a4.22 4.22 0 0 0-2.618 2.45h-3.054a1.557 1.557 0 1 0 0 3.114h3.054a4.218 4.218 0 0 0 2.618 2.45c.639.206 1.29-.29 1.29-.961z" />
                  <path style="fill:#a13243"
                    d="M388.221 441.494a1.556 1.556 0 0 1 1.283-2.437h3.055a4.218 4.218 0 0 1 2.617-2.45c.639-.206 1.289.288 1.289.96v1.76c0-.672-.65-1.166-1.289-.96a4.21 4.21 0 0 0-2.617 2.45h-3.055a1.55 1.55 0 0 0-1.283.677z" />
                  <ellipse style="fill:#e27c8d" cx="395.277" cy="442.869" rx=".592" ry=".897" />
                </g>
                <g>
                  <path style="fill:#dc4355"
                    d="m372.561 468.735-6.071.498c-.669.055-1.216-.553-1.063-1.207a4.217 4.217 0 0 1 2.227-2.809l-.25-3.044a1.557 1.557 0 0 1 3.104-.254l.25 3.044a4.214 4.214 0 0 1 2.655 2.409c.257.618-.183 1.308-.852 1.363z" />
                  <path style="fill:#a13243"
                    d="M369.758 460.691a1.557 1.557 0 0 0-2.325 1.478l.25 3.045a4.215 4.215 0 0 0-2.227 2.809c-.153.654.393 1.261 1.062 1.206l1.754-.144c-.669.055-1.215-.552-1.062-1.206a4.217 4.217 0 0 1 2.227-2.809l-.25-3.045a1.555 1.555 0 0 1 .571-1.334z" />
                  <ellipse transform="rotate(-4.692 371.536 467.412)" style="fill:#e27c8d" cx="371.705" cy="467.611"
                    rx=".897" ry=".592" />
                </g>
                <g>
                  <path style="fill:#dc4355"
                    d="m352.744 467.079-5.341-2.93c-.589-.323-.71-1.132-.222-1.593a4.218 4.218 0 0 1 3.407-1.117l1.469-2.678a1.557 1.557 0 1 1 2.73 1.498l-1.469 2.678a4.22 4.22 0 0 1 .889 3.473c-.127.659-.874.991-1.463.669z" />
                  <path style="fill:#a13243"
                    d="M354.838 458.822a1.556 1.556 0 0 0-2.754-.047l-1.469 2.678a4.214 4.214 0 0 0-3.407 1.117c-.488.461-.367 1.269.222 1.592l1.543.847c-.589-.323-.71-1.131-.222-1.592a4.218 4.218 0 0 1 3.407-1.117l1.469-2.678a1.55 1.55 0 0 1 1.211-.8z" />
                  <ellipse transform="rotate(-61.249 352.66 465.685)" style="fill:#e27c8d" cx="352.65" cy="465.669"
                    rx=".592" ry=".897" />
                </g>
              </g>
              <g>
                <path style="fill:#dc4355"
                  d="m80.021 247.8 4.49-4.117c.495-.454.42-1.268-.164-1.6a4.221 4.221 0 0 0-3.575-.274l-2.064-2.251a1.556 1.556 0 1 0-2.295 2.105l2.064 2.251a4.215 4.215 0 0 0-.036 3.585c.28.61 1.085.755 1.58.301z" />
                <path style="fill:#a13243"
                  d="M76.023 240.279a1.557 1.557 0 0 1 2.664-.701l2.065 2.252a4.212 4.212 0 0 1 3.574.274c.584.332.659 1.145.164 1.599l-1.298 1.19c.495-.454.42-1.267-.164-1.599a4.216 4.216 0 0 0-3.574-.274l-2.065-2.252a1.547 1.547 0 0 0-1.366-.489z" />
                <ellipse transform="rotate(-42.515 79.787 246.414)" style="fill:#e27c8d" cx="79.778" cy="246.409"
                  rx=".897" ry=".592" />
                <path style="fill:#dc4355"
                  d="m89.049 208.454-3.058-5.269c-.337-.581-1.149-.682-1.598-.183a4.218 4.218 0 0 0-1.034 3.433l-2.642 1.533a1.557 1.557 0 1 0 1.564 2.694l2.642-1.533a4.216 4.216 0 0 0 3.494.804c.655-.143.969-.898.632-1.479z" />
                <path style="fill:#a13243"
                  d="M80.846 210.746a1.557 1.557 0 0 1-.113-2.753l2.642-1.534a4.215 4.215 0 0 1 1.034-3.433c.449-.499 1.26-.398 1.597.183l.884 1.522c-.337-.581-1.147-.682-1.597-.183a4.214 4.214 0 0 0-1.034 3.433l-2.642 1.534a1.555 1.555 0 0 0-.771 1.231z" />
                <ellipse transform="rotate(-30.131 87.649 208.405)" style="fill:#e27c8d" cx="87.638" cy="208.394"
                  rx=".592" ry=".897" />
                <path style="fill:#dc4355"
                  d="m79.293 196.135-5.401-2.819c-.595-.311-1.335.037-1.449.699a4.22 4.22 0 0 0 .96 3.454l-1.413 2.708a1.558 1.558 0 0 0 2.761 1.441l1.413-2.708a4.219 4.219 0 0 0 3.383-1.187c.478-.471.341-1.277-.254-1.588z" />
                <path style="fill:#a13243"
                  d="M73.584 202.457a1.557 1.557 0 0 1-1.567-2.266l1.414-2.708a4.213 4.213 0 0 1-.96-3.454c.113-.662.852-1.009 1.448-.699l1.561.815c-.595-.311-1.334.037-1.448.699a4.22 4.22 0 0 0 .96 3.454l-1.414 2.708a1.546 1.546 0 0 0 .006 1.451z" />
                <ellipse transform="rotate(-62.439 78.065 196.84)" style="fill:#e27c8d" cx="78.067" cy="196.838"
                  rx=".592" ry=".897" />
                <path style="fill:#dc4355"
                  d="m33.251 236.687 3.458 5.015c.381.553 1.198.591 1.607.059a4.215 4.215 0 0 0 .764-3.503l2.514-1.734a1.557 1.557 0 0 0-1.768-2.564l-2.514 1.734a4.217 4.217 0 0 0-3.546-.53c-.641.193-.896.97-.515 1.523z" />
                <path style="fill:#a13243"
                  d="M41.252 233.764a1.556 1.556 0 0 1 .327 2.735l-2.515 1.734a4.216 4.216 0 0 1-.764 3.503c-.409.532-1.225.494-1.606-.058l-.999-1.449c.381.553 1.197.591 1.606.058a4.215 4.215 0 0 0 .764-3.503l2.515-1.734a1.55 1.55 0 0 0 .672-1.286z" />
                <ellipse transform="rotate(-34.591 34.665 236.647)" style="fill:#e27c8d" cx="34.663" cy="236.638"
                  rx=".592" ry=".897" />
                <path style="fill:#dc4355"
                  d="m41.668 198.651-4.812 3.735c-.53.412-.522 1.229.032 1.608a4.217 4.217 0 0 0 3.54.566l1.873 2.413a1.557 1.557 0 1 0 2.46-1.91l-1.873-2.413a4.219 4.219 0 0 0 .33-3.57c-.229-.63-1.02-.841-1.55-.429z" />
                <path style="fill:#a13243"
                  d="M45.037 206.474a1.557 1.557 0 0 1-2.713.481l-1.873-2.413a4.214 4.214 0 0 1-3.54-.566c-.555-.379-.563-1.195-.032-1.607l1.391-1.079c-.531.412-.522 1.228.032 1.607a4.214 4.214 0 0 0 3.54.566l1.873 2.413a1.55 1.55 0 0 0 1.322.598z" />
                <ellipse transform="rotate(-37.824 41.784 200.05)" style="fill:#e27c8d" cx="41.797" cy="200.058"
                  rx=".897" ry=".592" />
                <circle style="fill:#c60053" cx="60.957" cy="222.393" r="24.558" />
                <path style="fill:#970a4b"
                  d="M64.943 244.964c-3.514-1.511-4.792-5.855-2.682-9.046a24.439 24.439 0 0 0 4.058-13.526c0-4.998-1.493-9.646-4.058-13.525-2.11-3.191-.832-7.536 2.683-9.046l.075-.032a24.198 24.198 0 0 1 2.777-.988 24.58 24.58 0 0 0-6.84-.965c-3.412 0-6.662.696-9.614 1.954-8.786 3.74-14.944 12.452-14.944 22.603 0 10.15 6.159 18.863 14.944 22.604a24.467 24.467 0 0 0 9.614 1.954 24.58 24.58 0 0 0 6.84-.965 23.948 23.948 0 0 1-2.853-1.022z" />
                <g>
                  <circle style="fill:#dc4355" cx="46.775" cy="222.362" r="4.786" />
                  <path style="fill:#a13243" d="M48.059 226.974a4.786 4.786 0 1 1 0-9.222 4.787 4.787 0 0 0 0 9.222z" />
                  <circle style="fill:#e27c8d" cx="49.45" cy="221.694" r="1.391" />
                </g>
                <g>
                  <circle style="fill:#dc4355" cx="73.106" cy="222.393" r="4.786" />
                  <path style="fill:#a13243" d="M74.39 227.005a4.786 4.786 0 1 1 0-9.222 4.787 4.787 0 0 0 0 9.222z" />
                  <circle style="fill:#e27c8d" cx="75.782" cy="221.725" r="1.391" />
                </g>
                <g>
                  <circle style="fill:#dc4355" cx="60.099" cy="208.393" r="3.307" />
                  <path style="fill:#a13243" d="M60.986 211.58a3.307 3.307 0 1 1 0-6.371 3.306 3.306 0 0 0 0 6.371z" />
                  <circle style="fill:#e27c8d" cx="61.947" cy="207.932" r=".961" />
                </g>
                <g>
                  <circle style="fill:#dc4355" cx="60.92" cy="236.637" r="3.307" />
                  <path style="fill:#a13243" d="M61.808 239.824a3.307 3.307 0 1 1 0-6.371 3.306 3.306 0 0 0 0 6.371z" />
                  <circle style="fill:#e27c8d" cx="62.769" cy="236.176" r=".961" />
                </g>
                <g>
                  <path style="fill:#dc4355"
                    d="m59.715 191.216-5.969 1.218c-.658.134-1.013.871-.684 1.456a4.217 4.217 0 0 0 2.923 2.075l.611 2.993a1.556 1.556 0 1 0 3.051-.623l-.611-2.993a4.219 4.219 0 0 0 1.877-3.055c.075-.667-.54-1.205-1.198-1.071z" />
                  <path style="fill:#a13243"
                    d="M59.271 199.722a1.557 1.557 0 0 1-2.645-.77l-.611-2.993a4.212 4.212 0 0 1-2.923-2.075c-.329-.585.025-1.321.683-1.455l1.725-.352c-.658.134-1.012.87-.683 1.455a4.214 4.214 0 0 0 2.923 2.075l.611 2.993c.106.522.463.931.92 1.122z" />
                  <ellipse transform="rotate(-11.536 59.202 192.562)" style="fill:#e27c8d" cx="59.208" cy="192.534"
                    rx=".897" ry=".592" />
                </g>
                <g>
                  <path style="fill:#dc4355"
                    d="m31.735 214.907-.793 6.04c-.087.666.494 1.241 1.154 1.12a4.216 4.216 0 0 0 2.914-2.088l3.028.397a1.558 1.558 0 0 0 .406-3.088l-3.028-.397a4.217 4.217 0 0 0-2.277-2.769c-.607-.286-1.317.12-1.404.785z" />
                  <path style="fill:#a13243"
                    d="M39.633 218.098a1.556 1.556 0 0 1-1.59 2.249l-3.029-.397a4.213 4.213 0 0 1-2.914 2.088c-.66.121-1.241-.454-1.153-1.12l.229-1.745c-.087.666.493 1.241 1.153 1.12a4.216 4.216 0 0 0 2.914-2.088l3.029.397a1.55 1.55 0 0 0 1.361-.504z" />
                  <ellipse transform="rotate(-82.525 32.816 215.817)" style="fill:#e27c8d" cx="32.816" cy="215.817"
                    rx=".897" ry=".592" />
                </g>
                <g>
                  <path style="fill:#dc4355"
                    d="M91.429 227.963v-6.092c0-.671-.651-1.166-1.29-.961a4.22 4.22 0 0 0-2.618 2.45h-3.054a1.557 1.557 0 1 0 0 3.114h3.054a4.218 4.218 0 0 0 2.618 2.45c.639.206 1.29-.289 1.29-.961z" />
                  <path style="fill:#a13243"
                    d="M83.183 225.827a1.556 1.556 0 0 1 1.283-2.437h3.055a4.218 4.218 0 0 1 2.618-2.45c.639-.206 1.289.288 1.289.96v1.76c0-.672-.65-1.166-1.289-.96a4.215 4.215 0 0 0-2.618 2.45h-3.055a1.55 1.55 0 0 0-1.283.677z" />
                  <ellipse style="fill:#e27c8d" cx="90.239" cy="227.203" rx=".592" ry=".897" />
                </g>
                <g>
                  <path style="fill:#dc4355"
                    d="m67.523 253.068-6.071.498c-.669.055-1.216-.553-1.063-1.207a4.217 4.217 0 0 1 2.227-2.809l-.25-3.044a1.557 1.557 0 0 1 3.104-.254l.25 3.044a4.214 4.214 0 0 1 2.655 2.409c.257.619-.183 1.308-.852 1.363z" />
                  <path style="fill:#a13243"
                    d="M64.72 245.024a1.557 1.557 0 0 0-2.325 1.478l.25 3.045a4.215 4.215 0 0 0-2.227 2.809c-.153.654.393 1.261 1.062 1.206l1.754-.144c-.669.055-1.215-.552-1.062-1.206a4.217 4.217 0 0 1 2.227-2.809l-.25-3.045a1.557 1.557 0 0 1 .571-1.334z" />
                  <ellipse transform="rotate(-4.692 66.634 251.835)" style="fill:#e27c8d" cx="66.667" cy="251.944"
                    rx=".897" ry=".592" />
                </g>
                <g>
                  <path style="fill:#dc4355"
                    d="m47.706 251.412-5.341-2.93c-.589-.323-.71-1.132-.222-1.593a4.22 4.22 0 0 1 3.407-1.117l1.469-2.678a1.557 1.557 0 1 1 2.73 1.498l-1.469 2.678a4.22 4.22 0 0 1 .889 3.473c-.127.659-.874.992-1.463.669z" />
                  <path style="fill:#a13243"
                    d="M49.8 243.155a1.556 1.556 0 0 0-2.754-.047l-1.469 2.678a4.214 4.214 0 0 0-3.407 1.117c-.488.461-.367 1.269.222 1.592l1.543.847c-.589-.323-.71-1.131-.222-1.592a4.218 4.218 0 0 1 3.407-1.117l1.469-2.678a1.55 1.55 0 0 1 1.211-.8z" />
                  <ellipse transform="rotate(-61.249 47.613 250.01)" style="fill:#e27c8d" cx="47.612" cy="250.003"
                    rx=".592" ry=".897" />
                </g>
              </g>
              <g>
                <path style="fill:#e8b88f"
                  d="M407.25 289c-.76 14.32-6.19 27.53-14.84 38.05-10.32 12.56-25.22 21.29-42.19 23.49-1.64.22-3.27.37-4.89.46-2.37.13-4.68.56-6.89 1.26-5.43 1.72-10.25 5.09-13.67 9.8a83.959 83.959 0 0 1-25.63 23.17c-.17.09-.34.19-.51.29a111.02 111.02 0 0 1-2.44 1.35c-.36.2-.73.39-1.1.57-.81.42-1.62.82-2.44 1.2-.52.25-1.04.48-1.56.72-.62.28-1.24.54-1.86.8l-.36.15c-.44.18-.88.36-1.32.52-.19.08-.38.16-.58.23-.38.15-.77.29-1.16.43-.14.06-.28.11-.42.16-.87.32-1.75.62-2.64.89-.46.15-.93.3-1.4.44-.72.23-1.46.44-2.2.63-.44.13-.88.25-1.33.36-2.71.69-5.49 1.25-8.3 1.67-.7.1-1.4.2-2.1.28-.71.09-1.42.17-2.14.24l-.35.03c-.21.02-.42.04-.63.05-.6.06-1.2.1-1.81.14-.08.01-.17.01-.25.01-.65.05-1.31.08-1.96.1-.24.01-.48.02-.72.02-.8.03-1.6.04-2.4.04h-.02c-23.46 0-44.65-9.67-59.82-25.24a91.73 91.73 0 0 1-1.67-1.76c-.55-.59-1.08-1.19-1.61-1.8a85.097 85.097 0 0 1-4.51-5.68c-.6-.83-1.25-1.62-1.95-2.36-.33-.38-.69-.75-1.06-1.09-.35-.36-.72-.69-1.09-1-.02-.02-.04-.03-.06-.06a20.989 20.989 0 0 0-1.19-.96c-.37-.29-.76-.57-1.15-.83-.33-.24-.68-.46-1.03-.67-.17-.11-.35-.22-.53-.32-.07-.05-.15-.1-.23-.14-.23-.13-.46-.26-.69-.38-1.42-.77-2.91-1.41-4.45-1.91l-.78-.24c-.26-.08-.52-.15-.78-.22s-.52-.13-.78-.19c-.27-.07-.54-.13-.82-.18l-.78-.15c-.54-.09-1.08-.17-1.62-.23-.27-.03-.54-.06-.82-.08-.24-.02-.49-.04-.74-.05-.03-.01-.05-.01-.08-.01-.19-.01-.39-.02-.58-.04h-.01c-.56-.04-1.11-.08-1.66-.13-.56-.05-1.11-.1-1.67-.17-.55-.06-1.1-.13-1.65-.21-.65-.09-1.29-.19-1.93-.3-.44-.08-.89-.16-1.33-.25-.53-.1-1.07-.21-1.6-.33-.52-.11-1.04-.23-1.56-.36l-.13-.03-1.39-.36c-.09-.03-.19-.05-.28-.08-.46-.13-.92-.26-1.38-.4-.52-.16-1.03-.32-1.55-.49-.47-.15-.93-.31-1.4-.47-.09-.04-.19-.07-.28-.11-.46-.16-.91-.33-1.36-.5-.4-.15-.79-.31-1.19-.47-.19-.08-.38-.16-.57-.23-.41-.17-.81-.35-1.21-.53-.46-.2-.91-.4-1.36-.62-.06-.03-.12-.05-.18-.08-.4-.19-.8-.38-1.2-.58-.33-.17-.67-.34-1-.51a42.8 42.8 0 0 1-.94-.5c-.9-.49-1.79-1.01-2.67-1.53-.82-.5-1.63-1.01-2.43-1.54-.04-.03-.09-.06-.14-.09a83.65 83.65 0 0 1-2.46-1.73c-.01-.01-.02-.02-.03-.02a66.66 66.66 0 0 1-4.88-3.98 62.412 62.412 0 0 1-3.42-3.29 67.54 67.54 0 0 1-2.14-2.32c-.32-.36-.64-.73-.95-1.1-.31-.37-.62-.75-.92-1.12a65.468 65.468 0 0 1-5.02-7.14c-.27-.42-.52-.85-.77-1.28-.72-1.26-1.4-2.54-2.05-3.84-.22-.44-.43-.88-.63-1.32-.21-.44-.41-.89-.6-1.33-.2-.45-.39-.9-.58-1.35-.37-.91-.73-1.83-1.06-2.75-.67-1.85-1.25-3.73-1.75-5.65-.13-.48-.25-.96-.36-1.44-.12-.49-.22-.97-.33-1.46-.31-1.46-.57-2.94-.78-4.43-.21-1.49-.37-3-.48-4.52a63.97 63.97 0 0 1-.16-5.19 65.32 65.32 0 0 1 11.92-37.14c.3-.44.62-.87.94-1.3.41-.55.83-1.1 1.25-1.63h.01c.89-1.15 1.84-2.26 2.81-3.34.36-.4.72-.79 1.09-1.18s.75-.77 1.12-1.15c.38-.38.76-.75 1.14-1.12.96-.92 1.91-1.85 2.85-2.79 11.69-11.74 21.38-25.13 28.96-39.62a172.22 172.22 0 0 0 12.54-31.18c.38-1.27.73-2.54 1.07-3.81.58-2.13 1.11-4.28 1.6-6.44.4-1.7.76-3.41 1.1-5.13.77-3.89 1.41-7.81 1.92-11.76s.89-7.92 1.14-11.91l7.14-115.49h.01a254.29 254.29 0 0 1 42.66-8.34C237.29.51 246.59 0 256 0c25.31 0 49.75 3.67 72.84 10.51L336 126.22c2.62 42.21 20.26 82.48 50.91 111.62 7.83 7.44 13.83 16.8 17.24 27.31 2.42 7.46 3.54 15.5 3.1 23.85z" />
                <path style="fill:#e7aa70"
                  d="M302.72 383.01c-1.17.77-2.37 1.51-3.58 2.22-.17.09-.34.19-.51.29a111.02 111.02 0 0 1-2.44 1.35c-.37.19-.73.39-1.1.57-.81.42-1.62.82-2.44 1.2-.52.25-1.04.48-1.56.72-.62.28-1.24.54-1.86.8l-.36.15c-.44.18-.88.36-1.32.52-.19.08-.38.16-.58.23-.38.15-.77.29-1.16.43-.14.06-.28.11-.42.16-.87.31-1.75.61-2.64.89-.46.15-.93.3-1.4.44-.72.23-1.46.44-2.2.63-.44.13-.88.25-1.33.36-2.71.69-5.49 1.25-8.3 1.67-.7.1-1.4.2-2.1.28-.71.09-1.42.17-2.14.24l-.35.03c-.21.02-.42.04-.63.05-.6.06-1.2.1-1.81.14-.08.01-.17.01-.25.01-.65.05-1.31.08-1.96.1-.24.01-.48.02-.72.02-.8.03-1.6.04-2.4.04h-.02c-23.46 0-44.65-9.67-59.82-25.24a91.73 91.73 0 0 1-1.67-1.76c-.55-.59-1.08-1.19-1.61-1.8-1.59-1.83-3.1-3.72-4.52-5.68-.6-.83-1.25-1.62-1.94-2.36-.34-.38-.69-.74-1.06-1.09-.35-.34-.72-.68-1.09-1-.02-.02-.04-.03-.06-.06a44.156 44.156 0 0 0-1.19-.96c-.38-.29-.76-.56-1.15-.83-.34-.23-.68-.46-1.03-.67-.18-.12-.35-.22-.53-.32a12 12 0 0 0-.92-.52c-1.42-.77-2.91-1.41-4.45-1.91-.26-.09-.52-.17-.78-.24-.26-.08-.52-.15-.78-.22-.25-.07-.51-.14-.78-.19-.27-.07-.54-.13-.82-.18-.26-.06-.52-.11-.78-.15a30.052 30.052 0 0 0-2.44-.31c-.25-.02-.49-.04-.74-.05-.03-.01-.05-.01-.08-.01-.19-.01-.39-.02-.58-.04h-.01c-.56-.04-1.11-.08-1.66-.13-.56-.05-1.11-.1-1.67-.17-.55-.06-1.1-.13-1.65-.21-.65-.09-1.29-.19-1.93-.3-.44-.08-.89-.16-1.33-.25-.53-.1-1.07-.21-1.6-.33-.52-.11-1.04-.23-1.56-.36l-.13-.03-1.39-.36c-.09-.03-.19-.05-.28-.08-.46-.13-.92-.26-1.38-.4-.52-.16-1.03-.32-1.55-.49-.47-.15-.93-.31-1.4-.47-.09-.04-.19-.07-.28-.11-.46-.16-.91-.33-1.36-.5-.4-.15-.79-.31-1.19-.47-.19-.08-.38-.16-.57-.23-.41-.17-.81-.35-1.21-.53-.46-.2-.91-.4-1.36-.62-.06-.03-.12-.05-.18-.08-.4-.19-.8-.38-1.2-.58-.33-.17-.67-.34-1-.51a42.8 42.8 0 0 1-.94-.5c-.9-.49-1.79-1.01-2.67-1.53-.82-.5-1.63-1.01-2.43-1.54-.04-.03-.09-.06-.14-.09a83.65 83.65 0 0 1-2.46-1.73c-.01-.01-.02-.02-.03-.02a64.157 64.157 0 0 1-4.88-3.98 59.014 59.014 0 0 1-3.42-3.29 55.113 55.113 0 0 1-2.09-2.266c-.016-.019-.034-.036-.05-.054-.32-.36-.64-.73-.95-1.1-.31-.37-.62-.75-.92-1.12a61.948 61.948 0 0 1-5.02-7.14c-.27-.42-.52-.85-.77-1.28-.73-1.25-1.41-2.53-2.05-3.84-.22-.44-.43-.88-.63-1.32-.21-.44-.41-.89-.6-1.33-.2-.45-.39-.9-.58-1.35-.37-.91-.73-1.83-1.06-2.75a56.88 56.88 0 0 1-1.75-5.65c-.13-.48-.25-.96-.36-1.44-.12-.49-.22-.97-.33-1.46-.32-1.46-.58-2.94-.78-4.43-.22-1.49-.38-3-.48-4.52-.13-1.72-.19-3.45-.17-5.19.11-12.66 3.81-24.47 10.14-34.46.58-.91 1.17-1.8 1.79-2.68.3-.44.62-.87.94-1.3.41-.55.83-1.1 1.25-1.63.9-1.15 1.84-2.26 2.82-3.34.36-.4.72-.79 1.09-1.18s.75-.77 1.12-1.15c.38-.38.76-.75 1.14-1.12.96-.92 1.91-1.85 2.85-2.79 11.69-11.75 21.37-25.14 28.95-39.64 5.19-9.93 9.38-20.38 12.55-31.16.38-1.27.73-2.54 1.07-3.81.57-2.13 1.1-4.27 1.59-6.43 0 0 0-.01.01-.01.39-1.7.76-3.41 1.1-5.13.77-3.89 1.41-7.81 1.92-11.76s.88-7.92 1.13-11.91l7.14-115.49h.02a254.29 254.29 0 0 1 42.66-8.34l-6.82 110.33c-1.28 20.8-6.17 41.12-14.43 59.92-5.48 12.47-12.45 24.27-20.84 35.08a160.506 160.506 0 0 1-15.9 17.64c-9.18 8.78-15.82 20.18-18.69 33.01-1.01 4.46-1.56 9.1-1.6 13.85-.32 34.66 26.85 63.94 61.44 66.13.19.02.39.03.58.04 8.2.45 15.8 4.43 20.63 11.07 15.19 20.89 39.81 34.48 67.62 34.48.86 0 1.72-.01 2.58-.04z" />
                <path style="fill:#b97b51"
                  d="M181.236 354.639c-3.72-2.14-7.94-3.4-12.34-3.64-.19-.01-.39-.02-.58-.04-17.93-1.14-33.86-9.55-45-22.21 6.83-3.5 19.37-2.87 32.25 2.25 14.78 5.88 25.19 15.76 25.67 23.64zM392.406 327.049c-10.32 12.56-25.22 21.29-42.19 23.49-1.64.22-3.27.37-4.89.46-2.37.13-4.68.56-6.89 1.26 2.42-7.27 11.7-15.63 24.35-21.09 11.29-4.86 22.41-6.19 29.62-4.12z" />
              </g>
            </svg>