<svg xmlns="http://www.w3.org/2000/svg" viewBox="0 0 512 512" style="enable-background:new 0 0 512 512"
              xml:space="preserve">
              <circle style="fill:#78c478" cx="256" cy="256" r="256" />
              <path style="fill:#6baa6b"
                d="M512 256c0 34.42-6.79 67.25-19.12 97.23-30.27 73.69-93.94 130.14-172.16 150.51a253.368 253.368 0 0 1-32.67 6.27L279.57 498c5.46-18.3 5.47-35.57 2.23-51.32 0-.03 0-.05-.01-.07-4.75-23.09-16.46-42.93-28.16-57.96-1.21-1.55-2.46-3.07-3.74-4.55-.53-.6-1.05-1.2-1.59-1.79-.36-.4-.72-.79-1.09-1.18 0-.01 0-.02-.01-.02-1.38-1.48-2.79-2.92-4.24-4.32-.19-.19-.39-.38-.58-.56-.24-.23-.47-.45-.71-.67-.5-.47-1.01-.94-1.52-1.39-9.92-8.99-21.34-16.26-33.64-21.8-12.45-5.6-21.76-13.94-28.71-23.5-11.19-15.36-16.3-33.88-18.56-49.3-.03-.24-.07-.48-.1-.71-.05-.32-.09-.64-.13-.95v-.01c-.36-2.63-.64-5.16-.84-7.55-.07-.78-.14-1.55-.19-2.3l-.09-1.22v-.02c-.02-.39-.05-.78-.07-1.16-.49-8.41.38-16.8 2.14-25.04 2.04-9.51 1.6-19.17-.42-28.53-2.61-12.16-7.88-23.82-13.82-34.04-12.51-21.54-28-36.71-28-36.71-28.51-36-14.35-75.31 4.25-103.48C160.96 13.85 206.86 0 256 0c42.15 0 81.92 10.19 116.98 28.24 5.09.59 10.37 1.32 15.86 2.2 0 0 51.9 2.73 73.76 48.5 0 0 36.92 33.04 31.69 83.33C505.72 191.3 512 222.92 512 256z" />
              <path style="fill:#dc4355"
                d="m85.911 375.037 3.773-3.459c.416-.381.353-1.065-.137-1.345a3.542 3.542 0 0 0-3.003-.23l-1.734-1.892a1.308 1.308 0 1 0-1.929 1.769l1.734 1.892a3.547 3.547 0 0 0-.031 3.012c.235.512.911.634 1.327.253z" />
              <path style="fill:#a13243"
                d="M82.552 368.717a1.309 1.309 0 0 1 2.239-.589l1.735 1.892a3.542 3.542 0 0 1 3.003.23c.49.279.553.962.137 1.344l-1.09 1c.416-.381.353-1.065-.137-1.344a3.542 3.542 0 0 0-3.003-.23l-1.735-1.892a1.308 1.308 0 0 0-1.149-.411z" />
              <ellipse transform="rotate(-42.515 85.72 373.877)" style="fill:#e27c8d" cx="85.707" cy="373.868" rx=".754"
                ry=".498" />
              <path style="fill:#dc4355"
                d="m93.497 341.978-2.57-4.427c-.283-.488-.965-.573-1.343-.154a3.542 3.542 0 0 0-.869 2.884l-2.219 1.288a1.308 1.308 0 1 0 1.313 2.263l2.219-1.288a3.543 3.543 0 0 0 2.935.676c.553-.12.817-.755.534-1.242z" />
              <path style="fill:#a13243"
                d="M86.604 343.904a1.307 1.307 0 0 1-.095-2.312l2.22-1.289a3.542 3.542 0 0 1 .869-2.884c.378-.419 1.058-.334 1.342.154l.743 1.279c-.283-.488-.964-.573-1.342-.154a3.542 3.542 0 0 0-.869 2.884l-2.22 1.289a1.3 1.3 0 0 0-.648 1.033z" />
              <ellipse transform="rotate(-30.131 92.326 341.946)" style="fill:#e27c8d" cx="92.311" cy="341.927"
                rx=".498" ry=".754" />
              <path style="fill:#dc4355"
                d="m85.299 331.627-4.538-2.368c-.5-.261-1.122.031-1.217.587a3.546 3.546 0 0 0 .807 2.902l-1.187 2.275a1.308 1.308 0 1 0 2.32 1.21l1.187-2.275a3.543 3.543 0 0 0 2.842-.997c.402-.396.286-1.073-.214-1.334z" />
              <path style="fill:#a13243"
                d="M80.502 336.938a1.308 1.308 0 0 1-1.317-1.903l1.188-2.276a3.543 3.543 0 0 1-.807-2.902c.095-.556.716-.848 1.216-.587l1.311.684c-.5-.261-1.121.031-1.216.587a3.543 3.543 0 0 0 .807 2.902l-1.188 2.275c-.206.398-.19.854.006 1.22z" />
              <ellipse transform="rotate(-62.439 84.266 332.22)" style="fill:#e27c8d" cx="84.27" cy="332.217" rx=".498"
                ry=".754" />
              <path style="fill:#dc4355"
                d="m46.614 365.699 2.906 4.214c.32.464 1.007.496 1.351.049a3.542 3.542 0 0 0 .642-2.943l2.113-1.457a1.308 1.308 0 1 0-1.486-2.154l-2.113 1.457a3.545 3.545 0 0 0-2.979-.446c-.54.163-.754.816-.434 1.28z" />
              <path style="fill:#a13243"
                d="M53.337 363.244a1.308 1.308 0 0 1 .275 2.298l-2.113 1.457a3.538 3.538 0 0 1-.642 2.943c-.344.447-1.029.415-1.35-.049l-.84-1.218c.32.465 1.006.496 1.35.049a3.538 3.538 0 0 0 .642-2.943l2.113-1.457c.369-.254.567-.665.565-1.08z" />
              <ellipse transform="rotate(-34.591 47.803 365.673)" style="fill:#e27c8d" cx="47.8" cy="365.658" rx=".498"
                ry=".754" />
              <path style="fill:#dc4355"
                d="m53.686 333.741-4.043 3.139c-.446.346-.439 1.033.027 1.351a3.541 3.541 0 0 0 2.974.475l1.574 2.027a1.308 1.308 0 1 0 2.067-1.605l-1.574-2.027a3.542 3.542 0 0 0 .277-2.999c-.192-.53-.856-.707-1.302-.361z" />
              <path style="fill:#a13243"
                d="M56.517 340.314a1.308 1.308 0 0 1-2.279.404l-1.574-2.028a3.541 3.541 0 0 1-2.974-.475c-.466-.318-.473-1.004-.027-1.35l1.168-.907c-.446.346-.439 1.032.027 1.35a3.541 3.541 0 0 0 2.974.475l1.574 2.028c.275.354.695.529 1.111.503z" />
              <ellipse transform="rotate(-37.824 53.774 334.91)" style="fill:#e27c8d" cx="53.794" cy="334.923" rx=".754"
                ry=".498" />
              <circle style="fill:#c60053" cx="69.893" cy="353.689" r="20.634" />
              <path style="fill:#970a4b"
                d="M73.242 372.654c-2.953-1.269-4.027-4.919-2.254-7.6a20.534 20.534 0 0 0 3.41-11.365 20.54 20.54 0 0 0-3.409-11.364c-1.773-2.681-.699-6.332 2.254-7.601l.063-.027a20.38 20.38 0 0 1 2.334-.831 20.638 20.638 0 0 0-5.747-.811c-2.867 0-5.598.585-8.078 1.642-7.382 3.143-12.556 10.463-12.556 18.992 0 8.529 5.175 15.849 12.556 18.993a20.556 20.556 0 0 0 8.078 1.642c1.994 0 3.923-.283 5.747-.811a20.258 20.258 0 0 1-2.334-.831l-.064-.028z" />
              <g>
                <circle style="fill:#dc4355" cx="57.977" cy="353.663" r="4.021" />
                <path style="fill:#a13243" d="M59.056 357.538a4.022 4.022 0 1 1 0-7.749 4.022 4.022 0 0 0 0 7.749z" />
                <circle style="fill:#e27c8d" cx="60.225" cy="353.102" r="1.169" />
              </g>
              <g>
                <circle style="fill:#dc4355" cx="80.101" cy="353.689" r="4.021" />
                <path style="fill:#a13243" d="M81.18 357.564a4.022 4.022 0 1 1 0-7.749 4.022 4.022 0 0 0 0 7.749z" />
                <circle style="fill:#e27c8d" cx="82.349" cy="353.128" r="1.169" />
              </g>
              <g>
                <circle style="fill:#dc4355" cx="69.172" cy="341.927" r="2.778" />
                <path style="fill:#a13243" d="M69.918 344.604a2.779 2.779 0 1 1 0-5.355 2.779 2.779 0 0 0 0 5.355z" />
                <circle style="fill:#e27c8d" cx="70.725" cy="341.539" r=".808" />
              </g>
              <g>
                <circle style="fill:#dc4355" cx="69.862" cy="365.658" r="2.778" />
                <path style="fill:#a13243" d="M70.608 368.335a2.779 2.779 0 1 1 0-5.355 2.779 2.779 0 0 0 0 5.355z" />
                <circle style="fill:#e27c8d" cx="71.416" cy="365.27" r=".808" />
              </g>
              <g>
                <path style="fill:#dc4355"
                  d="m68.85 327.493-5.015 1.023c-.553.113-.851.732-.574 1.223a3.545 3.545 0 0 0 2.456 1.744l.513 2.514a1.308 1.308 0 1 0 2.564-.524l-.513-2.514a3.546 3.546 0 0 0 1.577-2.567c.061-.559-.456-1.011-1.008-.899z" />
                <path style="fill:#a13243"
                  d="M68.476 334.641a1.309 1.309 0 0 1-2.223-.647l-.513-2.515a3.54 3.54 0 0 1-2.456-1.743c-.277-.492.021-1.11.574-1.223l1.449-.296c-.553.113-.851.731-.574 1.223a3.54 3.54 0 0 0 2.456 1.743l.513 2.515c.091.439.391.782.774.943z" />
                <ellipse transform="rotate(-11.536 68.41 328.646)" style="fill:#e27c8d" cx="68.423" cy="328.601"
                  rx=".754" ry=".498" />
              </g>
              <g>
                <path style="fill:#dc4355"
                  d="m45.34 347.4-.666 5.075c-.073.559.415 1.043.97.941a3.546 3.546 0 0 0 2.449-1.755l2.545.334a1.31 1.31 0 0 0 .341-2.595l-2.545-.334a3.542 3.542 0 0 0-1.913-2.327c-.511-.24-1.108.101-1.181.661z" />
                <path style="fill:#a13243"
                  d="M51.976 350.081a1.308 1.308 0 0 1-1.336 1.89l-2.545-.334a3.542 3.542 0 0 1-2.448 1.755c-.555.102-1.042-.381-.969-.941l.192-1.467c-.073.56.414 1.042.969.941a3.54 3.54 0 0 0 2.448-1.755l2.545.334c.445.059.867-.113 1.144-.423z" />
                <ellipse transform="rotate(-82.525 46.249 348.164)" style="fill:#e27c8d" cx="46.248" cy="348.164"
                  rx=".754" ry=".498" />
              </g>
              <g>
                <path style="fill:#dc4355"
                  d="M95.496 358.37v-5.119c0-.564-.547-.98-1.084-.807a3.542 3.542 0 0 0-2.199 2.058h-2.566a1.308 1.308 0 1 0 0 2.616h2.566a3.542 3.542 0 0 0 2.199 2.058c.537.174 1.084-.242 1.084-.806z" />
                <path style="fill:#a13243"
                  d="M88.568 356.575a1.307 1.307 0 0 1 1.078-2.048h2.567a3.542 3.542 0 0 1 2.199-2.058c.537-.173 1.083.242 1.083.807v1.479c0-.564-.546-.98-1.083-.807a3.54 3.54 0 0 0-2.199 2.058h-2.567c-.448 0-.844.225-1.078.569z" />
                <ellipse style="fill:#e27c8d" cx="94.496" cy="357.73" rx=".498" ry=".754" />
              </g>
              <g>
                <path style="fill:#dc4355"
                  d="m75.41 379.463-5.101.419c-.562.046-1.021-.465-.893-1.014a3.542 3.542 0 0 1 1.871-2.36l-.21-2.558a1.309 1.309 0 0 1 2.608-.214l.21 2.558a3.542 3.542 0 0 1 2.231 2.024c.216.52-.154 1.099-.716 1.145z" />
                <path style="fill:#a13243"
                  d="M73.055 372.705a1.308 1.308 0 0 0-1.953 1.242l.21 2.558a3.543 3.543 0 0 0-1.872 2.36c-.128.549.33 1.06.893 1.014l1.474-.121c-.562.046-1.021-.464-.893-1.014a3.54 3.54 0 0 1 1.872-2.36l-.21-2.558a1.303 1.303 0 0 1 .479-1.121z" />
                <ellipse transform="rotate(-4.692 74.653 378.355)" style="fill:#e27c8d" cx="74.691" cy="378.519"
                  rx=".754" ry=".498" />
              </g>
              <g>
                <path style="fill:#dc4355"
                  d="m58.76 378.072-4.488-2.462c-.495-.271-.596-.951-.186-1.339a3.544 3.544 0 0 1 2.862-.938l1.234-2.25a1.308 1.308 0 0 1 2.294 1.258l-1.234 2.25c.667.809.946 1.882.747 2.918-.107.555-.735.834-1.229.563z" />
                <path style="fill:#a13243"
                  d="M60.518 371.134a1.307 1.307 0 0 0-2.314-.039l-1.235 2.25a3.543 3.543 0 0 0-2.862.938c-.41.388-.309 1.066.186 1.338l1.297.711c-.495-.271-.596-.95-.186-1.338a3.544 3.544 0 0 1 2.862-.938l1.235-2.25a1.3 1.3 0 0 1 1.017-.672z" />
                <ellipse transform="rotate(-61.249 58.681 376.9)" style="fill:#e27c8d" cx="58.68" cy="376.888" rx=".498"
                  ry=".754" />
              </g>
              <g>
                <path style="fill:#dc4355"
                  d="m55.028 209.346 2.417-2.216a.537.537 0 0 0-.088-.861 2.268 2.268 0 0 0-1.924-.147l-1.111-1.212a.838.838 0 1 0-1.235 1.133l1.111 1.212a2.269 2.269 0 0 0-.02 1.929.537.537 0 0 0 .85.162z" />
                <path style="fill:#a13243"
                  d="M52.876 205.298a.838.838 0 0 1 1.434-.378l1.111 1.212a2.272 2.272 0 0 1 1.924.147.537.537 0 0 1 .088.861l-.698.64a.537.537 0 0 0-.088-.861 2.268 2.268 0 0 0-1.924-.147l-1.111-1.212a.84.84 0 0 0-.736-.262z" />
                <ellipse transform="rotate(-42.515 54.905 208.602)" style="fill:#e27c8d" cx="54.897" cy="208.597"
                  rx=".483" ry=".319" />
                <path style="fill:#dc4355"
                  d="m59.887 188.171-1.646-2.835a.538.538 0 0 0-.86-.099 2.271 2.271 0 0 0-.557 1.847l-1.422.825a.839.839 0 0 0 .842 1.45l1.422-.825c.528.414 1.22.577 1.88.433a.537.537 0 0 0 .341-.796z" />
                <path style="fill:#a13243"
                  d="M55.472 189.404a.838.838 0 0 1-.061-1.482l1.422-.825a2.27 2.27 0 0 1 .556-1.847.536.536 0 0 1 .859.099l.476.819a.536.536 0 0 0-.859-.099 2.264 2.264 0 0 0-.556 1.847l-1.422.825a.838.838 0 0 0-.415.663z" />
                <ellipse transform="rotate(-30.131 59.136 188.149)" style="fill:#e27c8d" cx="59.128" cy="188.138"
                  rx=".319" ry=".483" />
                <path style="fill:#dc4355"
                  d="m54.636 181.541-2.906-1.517a.538.538 0 0 0-.78.376 2.27 2.27 0 0 0 .517 1.859l-.761 1.457a.839.839 0 0 0 1.486.776l.761-1.457a2.27 2.27 0 0 0 1.821-.639.538.538 0 0 0-.138-.855z" />
                <path style="fill:#a13243"
                  d="M51.564 184.943a.838.838 0 0 1-.843-1.22l.761-1.458a2.27 2.27 0 0 1-.517-1.859.537.537 0 0 1 .779-.376l.84.438a.537.537 0 0 0-.779.376 2.27 2.27 0 0 0 .517 1.859l-.761 1.458a.832.832 0 0 0 .003.782z" />
                <ellipse transform="rotate(-62.439 53.975 181.92)" style="fill:#e27c8d" cx="53.977" cy="181.919"
                  rx=".319" ry=".483" />
                <path style="fill:#dc4355"
                  d="m29.857 203.365 1.861 2.699a.538.538 0 0 0 .865.032 2.268 2.268 0 0 0 .411-1.885l1.353-.933a.838.838 0 1 0-.952-1.38l-1.353.933a2.27 2.27 0 0 0-1.908-.285.537.537 0 0 0-.277.819z" />
                <path style="fill:#a13243"
                  d="M34.163 201.792a.838.838 0 0 1 .176 1.472l-1.353.933c.15.655.001 1.349-.411 1.885a.537.537 0 0 1-.864-.031l-.538-.78a.535.535 0 0 0 .864.031c.412-.536.561-1.23.411-1.885l1.353-.933a.83.83 0 0 0 .362-.692z" />
                <ellipse transform="rotate(-34.591 30.619 203.347)" style="fill:#e27c8d" cx="30.617" cy="203.339"
                  rx=".319" ry=".483" />
                <path style="fill:#dc4355"
                  d="m34.387 182.895-2.59 2.01a.538.538 0 0 0 .017.866c.558.381 1.26.49 1.905.305l1.008 1.299a.838.838 0 1 0 1.324-1.028l-1.008-1.299a2.27 2.27 0 0 0 .178-1.921.537.537 0 0 0-.834-.232z" />
                <path style="fill:#a13243"
                  d="M36.2 187.105a.839.839 0 0 1-1.46.259l-1.008-1.299a2.27 2.27 0 0 1-1.905-.304.537.537 0 0 1-.017-.865l.748-.581a.537.537 0 0 0 .017.865c.558.381 1.26.491 1.905.304l1.008 1.299a.834.834 0 0 0 .712.322z" />
                <ellipse transform="rotate(-37.824 34.445 183.645)" style="fill:#e27c8d" cx="34.456" cy="183.652"
                  rx=".483" ry=".319" />
                <circle style="fill:#c60053" cx="44.768" cy="195.672" r="13.217" />
                <path style="fill:#970a4b"
                  d="M46.913 207.82c-1.891-.813-2.579-3.151-1.444-4.868a13.159 13.159 0 0 0 2.184-7.28c0-2.69-.804-5.192-2.184-7.279-1.135-1.717-.448-4.056 1.444-4.868l.041-.017a13.12 13.12 0 0 1 1.495-.532 13.223 13.223 0 0 0-3.681-.52c-1.837 0-3.586.375-5.174 1.052-4.728 2.013-8.043 6.702-8.043 12.165 0 5.463 3.314 10.152 8.043 12.165a13.17 13.17 0 0 0 5.174 1.052c1.278 0 2.513-.181 3.681-.52a12.93 12.93 0 0 1-1.495-.532l-.041-.018z" />
                <g>
                  <circle style="fill:#dc4355" cx="37.136" cy="195.656" r="2.576" />
                  <path style="fill:#a13243" d="M37.827 198.138a2.575 2.575 0 1 1 0-4.963 2.576 2.576 0 0 0 0 4.963z" />
                  <circle style="fill:#e27c8d" cx="38.575" cy="195.296" r=".749" />
                </g>
                <g>
                  <circle style="fill:#dc4355" cx="51.307" cy="195.672" r="2.576" />
                  <path style="fill:#a13243" d="M51.998 198.155a2.575 2.575 0 1 1 0-4.963 2.576 2.576 0 0 0 0 4.963z" />
                  <circle style="fill:#e27c8d" cx="52.747" cy="195.313" r=".749" />
                </g>
                <g>
                  <circle style="fill:#dc4355" cx="44.306" cy="188.138" r="1.78" />
                  <path style="fill:#a13243" d="M44.784 189.853a1.78 1.78 0 1 1 0-3.429 1.78 1.78 0 0 0 0 3.429z" />
                  <circle style="fill:#e27c8d" cx="45.301" cy="187.89" r=".517" />
                </g>
                <g>
                  <circle style="fill:#dc4355" cx="44.749" cy="203.339" r="1.78" />
                  <path style="fill:#a13243" d="M45.226 205.053a1.78 1.78 0 1 1 0-3.429 1.78 1.78 0 0 0 0 3.429z" />
                  <circle style="fill:#e27c8d" cx="45.743" cy="203.09" r=".517" />
                </g>
                <g>
                  <path style="fill:#dc4355"
                    d="m44.1 178.893-3.212.655a.538.538 0 0 0-.368.784 2.27 2.27 0 0 0 1.573 1.117l.329 1.611a.839.839 0 0 0 1.643-.335l-.329-1.611a2.27 2.27 0 0 0 1.01-1.644.538.538 0 0 0-.646-.577z" />
                  <path style="fill:#a13243"
                    d="M43.861 183.471a.838.838 0 0 1-1.424-.415l-.329-1.611a2.268 2.268 0 0 1-1.573-1.117.536.536 0 0 1 .368-.783l.928-.189a.537.537 0 0 0-.368.783c.331.589.912.998 1.573 1.117l.329 1.611c.058.281.25.501.496.604z" />
                  <ellipse transform="rotate(-11.536 43.82 179.628)" style="fill:#e27c8d" cx="43.827" cy="179.603"
                    rx=".483" ry=".319" />
                </g>
                <g>
                  <path style="fill:#dc4355"
                    d="m29.041 191.644-.427 3.251a.537.537 0 0 0 .621.603 2.269 2.269 0 0 0 1.568-1.124l1.63.214a.838.838 0 1 0 .218-1.662l-1.63-.214a2.27 2.27 0 0 0-1.225-1.49.537.537 0 0 0-.755.422z" />
                  <path style="fill:#a13243"
                    d="M33.292 193.361a.837.837 0 0 1-.856 1.211l-1.63-.214a2.271 2.271 0 0 1-1.568 1.124.537.537 0 0 1-.621-.603l.123-.939a.537.537 0 0 0 .621.603 2.269 2.269 0 0 0 1.568-1.124l1.63.214a.837.837 0 0 0 .733-.272z" />
                  <ellipse transform="rotate(-82.525 29.623 192.134)" style="fill:#e27c8d" cx="29.623" cy="192.133"
                    rx=".483" ry=".319" />
                </g>
                <g>
                  <path style="fill:#dc4355"
                    d="M61.168 198.67v-3.279a.537.537 0 0 0-.694-.517 2.273 2.273 0 0 0-1.409 1.318h-1.644a.838.838 0 1 0 0 1.676h1.644a2.268 2.268 0 0 0 1.409 1.318.536.536 0 0 0 .694-.516z" />
                  <path style="fill:#a13243"
                    d="M56.73 197.521a.837.837 0 0 1 .691-1.312h1.644a2.268 2.268 0 0 1 1.409-1.318.537.537 0 0 1 .694.517v.947a.537.537 0 0 0-.694-.517 2.27 2.27 0 0 0-1.409 1.318h-1.644a.836.836 0 0 0-.691.365z" />
                  <ellipse style="fill:#e27c8d" cx="60.527" cy="198.261" rx=".319" ry=".483" />
                </g>
                <g>
                  <path style="fill:#dc4355"
                    d="m48.302 212.181-3.268.268a.537.537 0 0 1-.572-.65 2.273 2.273 0 0 1 1.199-1.512l-.134-1.638a.838.838 0 1 1 1.671-.137l.134 1.638a2.27 2.27 0 0 1 1.429 1.296.538.538 0 0 1-.459.735z" />
                  <path style="fill:#a13243"
                    d="M46.793 207.852a.838.838 0 0 0-1.251.796l.134 1.639a2.273 2.273 0 0 0-1.199 1.512.536.536 0 0 0 .572.649l.944-.077a.537.537 0 0 1-.572-.649 2.27 2.27 0 0 1 1.199-1.512l-.134-1.639a.838.838 0 0 1 .307-.719z" />
                  <ellipse transform="rotate(-4.692 47.818 211.485)" style="fill:#e27c8d" cx="47.842" cy="211.576"
                    rx=".483" ry=".319" />
                </g>
                <g>
                  <path style="fill:#dc4355"
                    d="m37.637 211.29-2.874-1.577a.536.536 0 0 1-.119-.857 2.267 2.267 0 0 1 1.833-.601l.791-1.441a.839.839 0 0 1 1.47.806l-.791 1.441a2.27 2.27 0 0 1 .478 1.869.538.538 0 0 1-.788.36z" />
                  <path style="fill:#a13243"
                    d="M38.763 206.846a.838.838 0 0 0-1.483-.025l-.791 1.441a2.267 2.267 0 0 0-1.833.601.536.536 0 0 0 .119.857l.831.456a.536.536 0 0 1-.119-.857 2.267 2.267 0 0 1 1.833-.601l.791-1.441a.837.837 0 0 1 .652-.431z" />
                  <ellipse transform="rotate(-61.249 37.587 210.538)" style="fill:#e27c8d" cx="37.586" cy="210.532"
                    rx=".319" ry=".483" />
                </g>
              </g>
              <g>
                <path style="fill:#dc4355"
                  d="m155.357 291.05 2.417-2.216a.537.537 0 0 0-.088-.861 2.268 2.268 0 0 0-1.924-.147l-1.111-1.212a.838.838 0 1 0-1.235 1.133l1.111 1.212a2.269 2.269 0 0 0-.02 1.929.537.537 0 0 0 .85.162z" />
                <path style="fill:#a13243"
                  d="M153.205 287.002a.838.838 0 0 1 1.434-.378l1.111 1.212a2.272 2.272 0 0 1 1.924.147.537.537 0 0 1 .088.861l-.698.64a.537.537 0 0 0-.088-.861 2.268 2.268 0 0 0-1.924-.147l-1.111-1.212a.84.84 0 0 0-.736-.262z" />
                <ellipse transform="rotate(-42.515 155.24 290.306)" style="fill:#e27c8d" cx="155.226" cy="290.301"
                  rx=".483" ry=".319" />
                <path style="fill:#dc4355"
                  d="m160.216 269.875-1.646-2.835a.538.538 0 0 0-.86-.099 2.271 2.271 0 0 0-.557 1.847l-1.422.825a.839.839 0 0 0 .842 1.45l1.422-.825c.528.414 1.22.577 1.88.433a.538.538 0 0 0 .341-.796z" />
                <path style="fill:#a13243"
                  d="M155.801 271.108a.838.838 0 0 1-.061-1.482l1.422-.825a2.27 2.27 0 0 1 .556-1.847.536.536 0 0 1 .859.099l.476.819a.536.536 0 0 0-.859-.099 2.264 2.264 0 0 0-.556 1.847l-1.422.825a.837.837 0 0 0-.415.663z" />
                <ellipse transform="rotate(-30.131 159.474 269.855)" style="fill:#e27c8d" cx="159.457" cy="269.842"
                  rx=".319" ry=".483" />
                <path style="fill:#dc4355"
                  d="m154.965 263.245-2.906-1.517a.538.538 0 0 0-.78.376 2.27 2.27 0 0 0 .517 1.859l-.761 1.457a.839.839 0 0 0 1.486.776l.761-1.457a2.27 2.27 0 0 0 1.821-.639.538.538 0 0 0-.138-.855z" />
                <path style="fill:#a13243"
                  d="M151.893 266.647a.838.838 0 0 1-.843-1.22l.761-1.458a2.27 2.27 0 0 1-.517-1.859.537.537 0 0 1 .779-.376l.84.438a.537.537 0 0 0-.779.376 2.27 2.27 0 0 0 .517 1.859l-.761 1.458a.832.832 0 0 0 .003.782z" />
                <ellipse transform="rotate(-62.439 154.303 263.626)" style="fill:#e27c8d" cx="154.306" cy="263.623"
                  rx=".319" ry=".483" />
                <path style="fill:#dc4355"
                  d="m130.186 285.069 1.861 2.699a.538.538 0 0 0 .865.032c.412-.536.561-1.23.411-1.885l1.353-.933a.838.838 0 1 0-.952-1.38l-1.353.933a2.27 2.27 0 0 0-1.908-.285.537.537 0 0 0-.277.819z" />
                <path style="fill:#a13243"
                  d="M134.492 283.496a.838.838 0 0 1 .176 1.472l-1.353.933c.15.655.001 1.349-.411 1.885a.537.537 0 0 1-.864-.031l-.538-.78a.535.535 0 0 0 .864.031c.412-.536.561-1.23.411-1.885l1.353-.933a.834.834 0 0 0 .362-.692z" />
                <ellipse transform="rotate(-34.591 130.952 285.054)" style="fill:#e27c8d" cx="130.946" cy="285.043"
                  rx=".319" ry=".483" />
                <path style="fill:#dc4355"
                  d="m134.716 264.599-2.59 2.01a.538.538 0 0 0 .017.866c.558.381 1.26.49 1.905.305l1.008 1.298a.838.838 0 1 0 1.324-1.028l-1.008-1.298a2.27 2.27 0 0 0 .178-1.921.536.536 0 0 0-.834-.232z" />
                <path style="fill:#a13243"
                  d="M136.529 268.809a.839.839 0 0 1-1.46.259l-1.008-1.299a2.27 2.27 0 0 1-1.905-.304.537.537 0 0 1-.017-.865l.748-.581a.537.537 0 0 0 .017.865c.558.381 1.26.491 1.905.304l1.008 1.299a.837.837 0 0 0 .712.322z" />
                <ellipse transform="rotate(-37.824 134.765 265.35)" style="fill:#e27c8d" cx="134.785" cy="265.356"
                  rx=".483" ry=".319" />
                <circle style="fill:#c60053" cx="145.097" cy="277.376" r="13.217" />
                <path style="fill:#970a4b"
                  d="M147.242 289.524c-1.891-.813-2.579-3.151-1.444-4.868a13.159 13.159 0 0 0 2.184-7.28c0-2.69-.804-5.192-2.184-7.279-1.135-1.717-.448-4.056 1.444-4.868l.041-.017a13.12 13.12 0 0 1 1.495-.532 13.223 13.223 0 0 0-3.681-.52c-1.837 0-3.586.375-5.174 1.052-4.728 2.013-8.043 6.702-8.043 12.165s3.314 10.152 8.043 12.165a13.17 13.17 0 0 0 5.174 1.052c1.278 0 2.513-.181 3.681-.52a12.93 12.93 0 0 1-1.536-.55z" />
                <g>
                  <circle style="fill:#dc4355" cx="137.464" cy="277.36" r="2.576" />
                  <path style="fill:#a13243"
                    d="M138.156 279.842a2.575 2.575 0 1 1 0-4.963 2.576 2.576 0 0 0 0 4.963z" />
                  <circle style="fill:#e27c8d" cx="138.904" cy="277" r=".749" />
                </g>
                <g>
                  <circle style="fill:#dc4355" cx="151.636" cy="277.376" r="2.576" />
                  <path style="fill:#a13243"
                    d="M152.327 279.858a2.575 2.575 0 1 1 0-4.963 2.576 2.576 0 0 0 0 4.963z" />
                  <circle style="fill:#e27c8d" cx="153.076" cy="277.017" r=".749" />
                </g>
                <g>
                  <circle style="fill:#dc4355" cx="144.635" cy="269.842" r="1.78" />
                  <path style="fill:#a13243" d="M145.113 271.557a1.78 1.78 0 1 1 0-3.429 1.78 1.78 0 0 0 0 3.429z" />
                  <circle style="fill:#e27c8d" cx="145.63" cy="269.594" r=".517" />
                </g>
                <g>
                  <circle style="fill:#dc4355" cx="145.077" cy="285.042" r="1.78" />
                  <path style="fill:#a13243" d="M145.555 286.757a1.78 1.78 0 1 1 0-3.429 1.78 1.78 0 0 0 0 3.429z" />
                  <circle style="fill:#e27c8d" cx="146.072" cy="284.794" r=".517" />
                </g>
                <g>
                  <path style="fill:#dc4355"
                    d="m144.429 260.597-3.212.655a.538.538 0 0 0-.368.784 2.27 2.27 0 0 0 1.573 1.117l.329 1.611a.84.84 0 0 0 1.643-.335l-.329-1.611a2.27 2.27 0 0 0 1.01-1.644.538.538 0 0 0-.646-.577z" />
                  <path style="fill:#a13243"
                    d="M144.19 265.175a.838.838 0 0 1-1.424-.415l-.329-1.611a2.268 2.268 0 0 1-1.573-1.117.536.536 0 0 1 .368-.783l.928-.189a.537.537 0 0 0-.368.783c.331.589.912.998 1.573 1.117l.329 1.611c.058.281.25.501.496.604z" />
                  <ellipse transform="rotate(-11.536 144.155 261.348)" style="fill:#e27c8d" cx="144.156" cy="261.306"
                    rx=".483" ry=".319" />
                </g>
                <g>
                  <path style="fill:#dc4355"
                    d="m129.37 273.348-.427 3.251a.537.537 0 0 0 .621.603 2.269 2.269 0 0 0 1.568-1.124l1.63.214a.838.838 0 1 0 .218-1.662l-1.63-.214a2.27 2.27 0 0 0-1.225-1.49.536.536 0 0 0-.755.422z" />
                  <path style="fill:#a13243"
                    d="M133.621 275.065a.837.837 0 0 1-.856 1.211l-1.63-.214a2.271 2.271 0 0 1-1.568 1.124.537.537 0 0 1-.621-.603l.123-.939a.537.537 0 0 0 .621.603 2.266 2.266 0 0 0 1.568-1.124l1.63.214a.84.84 0 0 0 .733-.272z" />
                  <ellipse transform="rotate(-82.525 129.952 273.837)" style="fill:#e27c8d" cx="129.952" cy="273.837"
                    rx=".483" ry=".319" />
                </g>
                <g>
                  <path style="fill:#dc4355"
                    d="M161.497 280.374v-3.279a.537.537 0 0 0-.694-.517 2.273 2.273 0 0 0-1.409 1.318h-1.644a.838.838 0 1 0 0 1.676h1.644a2.268 2.268 0 0 0 1.409 1.318.536.536 0 0 0 .694-.516z" />
                  <path style="fill:#a13243"
                    d="M157.059 279.225a.837.837 0 0 1 .691-1.312h1.644a2.268 2.268 0 0 1 1.409-1.318.537.537 0 0 1 .694.517v.947a.537.537 0 0 0-.694-.517 2.27 2.27 0 0 0-1.409 1.318h-1.644a.836.836 0 0 0-.691.365z" />
                  <ellipse style="fill:#e27c8d" cx="160.856" cy="279.965" rx=".319" ry=".483" />
                </g>
                <g>
                  <path style="fill:#dc4355"
                    d="m148.631 293.885-3.268.268a.537.537 0 0 1-.572-.65 2.273 2.273 0 0 1 1.199-1.512l-.134-1.638a.838.838 0 1 1 1.671-.137l.134 1.638a2.27 2.27 0 0 1 1.429 1.296.538.538 0 0 1-.459.735z" />
                  <path style="fill:#a13243"
                    d="M147.122 289.556a.838.838 0 0 0-1.251.796l.134 1.639a2.273 2.273 0 0 0-1.199 1.512.536.536 0 0 0 .572.649l.944-.077a.537.537 0 0 1-.572-.649 2.27 2.27 0 0 1 1.199-1.512l-.134-1.639a.837.837 0 0 1 .307-.719z" />
                  <ellipse transform="rotate(-4.692 148.1 293.154)" style="fill:#e27c8d" cx="148.17" cy="293.28"
                    rx=".483" ry=".319" />
                </g>
                <g>
                  <path style="fill:#dc4355"
                    d="m137.966 292.994-2.874-1.577a.536.536 0 0 1-.119-.857 2.267 2.267 0 0 1 1.833-.601l.791-1.441a.839.839 0 0 1 1.47.806l-.791 1.441a2.27 2.27 0 0 1 .478 1.869.538.538 0 0 1-.788.36z" />
                  <path style="fill:#a13243"
                    d="M139.092 288.55a.838.838 0 0 0-1.482-.025l-.791 1.441a2.267 2.267 0 0 0-1.833.601.536.536 0 0 0 .119.857l.831.456a.536.536 0 0 1-.119-.857 2.267 2.267 0 0 1 1.833-.601l.791-1.441a.834.834 0 0 1 .651-.431z" />
                  <ellipse transform="rotate(-61.249 137.919 292.245)" style="fill:#e27c8d" cx="137.915" cy="292.235"
                    rx=".319" ry=".483" />
                </g>
              </g>
              <g>
                <path style="fill:#dc4355"
                  d="m169.196 117.871 3.975-3.645c.438-.402.372-1.123-.145-1.417a3.737 3.737 0 0 0-3.165-.243l-1.828-1.993a1.379 1.379 0 1 0-2.032 1.864l1.828 1.993a3.73 3.73 0 0 0-.032 3.174c.249.54.961.668 1.399.267z" />
                <path style="fill:#a13243"
                  d="M165.657 111.211a1.379 1.379 0 0 1 2.359-.621l1.828 1.994a3.734 3.734 0 0 1 3.165.242c.517.294.583 1.014.145 1.416l-1.149 1.053c.438-.402.372-1.122-.145-1.416a3.73 3.73 0 0 0-3.165-.242l-1.828-1.994a1.38 1.38 0 0 0-1.21-.432z" />
                <ellipse transform="rotate(-42.515 168.99 116.638)" style="fill:#e27c8d" cx="168.981" cy="116.639"
                  rx=".794" ry=".525" />
                <path style="fill:#dc4355"
                  d="m177.19 83.035-2.708-4.665c-.298-.514-1.017-.604-1.415-.162a3.734 3.734 0 0 0-.916 3.039l-2.339 1.358a1.378 1.378 0 1 0 1.385 2.385l2.339-1.358a3.733 3.733 0 0 0 3.093.712c.581-.127.859-.795.561-1.309z" />
                <path style="fill:#a13243"
                  d="M169.927 85.064a1.38 1.38 0 0 1-.101-2.437l2.339-1.358a3.732 3.732 0 0 1 .915-3.039c.398-.442 1.115-.352 1.414.162l.782 1.348c-.299-.514-1.016-.604-1.414-.162a3.729 3.729 0 0 0-.915 3.039l-2.339 1.358c-.408.237-.65.652-.681 1.089z" />
                <ellipse transform="rotate(-30.131 175.954 82.982)" style="fill:#e27c8d" cx="175.94" cy="82.981"
                  rx=".525" ry=".794" />
                <path style="fill:#dc4355"
                  d="m168.551 72.128-4.781-2.496c-.527-.275-1.182.033-1.283.619a3.733 3.733 0 0 0 .85 3.058l-1.251 2.397a1.379 1.379 0 0 0 2.444 1.276l1.251-2.397a3.733 3.733 0 0 0 2.995-1.051c.424-.418.302-1.131-.225-1.406z" />
                <path style="fill:#a13243"
                  d="M163.497 77.725a1.377 1.377 0 0 1-1.387-2.006l1.251-2.398a3.73 3.73 0 0 1-.85-3.058c.1-.586.755-.894 1.282-.619l1.382.721c-.527-.275-1.181.033-1.282.619a3.733 3.733 0 0 0 .85 3.058l-1.251 2.398c-.219.418-.202.898.005 1.285z" />
                <ellipse transform="rotate(-62.439 167.467 72.752)" style="fill:#e27c8d" cx="167.467" cy="72.75"
                  rx=".525" ry=".794" />
                <path style="fill:#dc4355"
                  d="m127.788 108.031 3.062 4.44c.337.489 1.061.523 1.423.052a3.736 3.736 0 0 0 .677-3.101l2.226-1.535a1.378 1.378 0 1 0-1.566-2.27l-2.226 1.535a3.737 3.737 0 0 0-3.139-.47c-.569.172-.795.86-.457 1.349z" />
                <path style="fill:#a13243"
                  d="M134.871 105.443a1.379 1.379 0 0 1 .29 2.422l-2.227 1.536a3.729 3.729 0 0 1-.677 3.101c-.362.471-1.085.438-1.422-.052l-.885-1.283c.338.49 1.06.523 1.422.052a3.728 3.728 0 0 0 .676-3.101l2.227-1.536c.39-.268.598-.7.596-1.139z" />
                <ellipse transform="rotate(-34.591 129.043 107.991)" style="fill:#e27c8d" cx="129.037" cy="107.988"
                  rx=".525" ry=".794" />
                <path style="fill:#dc4355"
                  d="m135.24 74.355-4.261 3.307c-.469.364-.462 1.089.028 1.424a3.734 3.734 0 0 0 3.134.501l1.658 2.136a1.379 1.379 0 1 0 2.179-1.691l-1.658-2.136a3.737 3.737 0 0 0 .292-3.161c-.203-.558-.903-.744-1.372-.38z" />
                <path style="fill:#a13243"
                  d="M138.222 81.282a1.378 1.378 0 0 1-2.402.425l-1.658-2.137a3.73 3.73 0 0 1-3.134-.501c-.491-.335-.498-1.058-.028-1.423l1.231-.956c-.47.365-.463 1.088.028 1.423a3.734 3.734 0 0 0 3.134.501l1.658 2.137c.29.374.734.558 1.171.531z" />
                <ellipse transform="rotate(-37.824 135.343 75.604)" style="fill:#e27c8d" cx="135.354" cy="75.6"
                  rx=".794" ry=".525" />
                <circle style="fill:#c60053" cx="152.317" cy="95.376" r="21.743" />
                <path style="fill:#970a4b"
                  d="M155.847 115.36c-3.111-1.338-4.243-5.184-2.375-8.009a21.636 21.636 0 0 0 3.593-11.976c0-4.425-1.322-8.541-3.592-11.975-1.868-2.825-.736-6.672 2.376-8.009l.067-.029a21.47 21.47 0 0 1 2.459-.875 21.763 21.763 0 0 0-6.056-.855c-3.021 0-5.899.616-8.512 1.73-7.779 3.311-13.231 11.025-13.231 20.012s5.453 16.701 13.231 20.013a21.66 21.66 0 0 0 8.512 1.73c2.102 0 4.134-.299 6.056-.855a21.28 21.28 0 0 1-2.459-.875c-.024-.008-.047-.018-.069-.027z" />
                <g>
                  <circle style="fill:#dc4355" cx="139.761" cy="95.348" r="4.238" />
                  <path style="fill:#a13243" d="M140.898 99.432a4.238 4.238 0 1 1 0-8.165 4.237 4.237 0 0 0 0 8.165z" />
                  <circle style="fill:#e27c8d" cx="142.13" cy="94.757" r="1.232" />
                </g>
                <g>
                  <circle style="fill:#dc4355" cx="163.074" cy="95.376" r="4.238" />
                  <path style="fill:#a13243" d="M164.211 99.459a4.238 4.238 0 1 1 0-8.165 4.237 4.237 0 0 0 0 8.165z" />
                  <circle style="fill:#e27c8d" cx="165.443" cy="94.784" r="1.232" />
                </g>
                <g>
                  <circle style="fill:#dc4355" cx="151.558" cy="82.981" r="2.928" />
                  <path style="fill:#a13243" d="M152.343 85.802a2.927 2.927 0 1 1 0-5.641 2.927 2.927 0 0 0 0 5.641z" />
                  <circle style="fill:#e27c8d" cx="153.194" cy="82.572" r=".851" />
                </g>
                <g>
                  <circle style="fill:#dc4355" cx="152.285" cy="107.987" r="2.928" />
                  <path style="fill:#a13243"
                    d="M153.071 110.808a2.927 2.927 0 1 1 0-5.641 2.927 2.927 0 0 0 0 5.641z" />
                  <circle style="fill:#e27c8d" cx="153.922" cy="107.579" r=".851" />
                </g>
                <g>
                  <path style="fill:#dc4355"
                    d="m151.218 67.772-5.285 1.078c-.582.119-.897.771-.605 1.289a3.733 3.733 0 0 0 2.588 1.837l.541 2.65a1.379 1.379 0 1 0 2.702-.552l-.541-2.65a3.735 3.735 0 0 0 1.662-2.704c.065-.59-.48-1.067-1.062-.948z" />
                  <path style="fill:#a13243"
                    d="M150.825 75.303a1.38 1.38 0 0 1-2.342-.682l-.541-2.65a3.73 3.73 0 0 1-2.588-1.837c-.292-.518.022-1.169.605-1.288l1.527-.312c-.583.119-.896.77-.605 1.288a3.73 3.73 0 0 0 2.588 1.837l.541 2.65c.094.463.41.825.815.994z" />
                  <ellipse transform="rotate(-11.536 150.783 68.958)" style="fill:#e27c8d" cx="150.769" cy="68.939"
                    rx=".794" ry=".525" />
                </g>
                <g>
                  <path style="fill:#dc4355"
                    d="m126.445 88.748-.702 5.348c-.077.589.437 1.099 1.022.992a3.734 3.734 0 0 0 2.58-1.849l2.681.352a1.379 1.379 0 1 0 .358-2.734l-2.681-.352a3.734 3.734 0 0 0-2.016-2.452c-.536-.254-1.165.106-1.242.695z" />
                  <path style="fill:#a13243"
                    d="M133.437 91.573a1.378 1.378 0 0 1-1.407 1.992l-2.682-.352a3.734 3.734 0 0 1-2.58 1.849c-.585.107-1.098-.402-1.021-.991l.203-1.545c-.077.59.436 1.098 1.021.991a3.734 3.734 0 0 0 2.58-1.849l2.682.352c.468.061.912-.12 1.204-.447z" />
                  <ellipse transform="rotate(-82.525 127.402 89.553)" style="fill:#e27c8d" cx="127.402" cy="89.553"
                    rx=".794" ry=".525" />
                </g>
                <g>
                  <path style="fill:#dc4355"
                    d="M179.296 100.308v-5.394c0-.594-.576-1.033-1.142-.851a3.737 3.737 0 0 0-2.318 2.169h-2.704a1.38 1.38 0 0 0 0 2.758h2.704a3.734 3.734 0 0 0 2.318 2.169c.566.181 1.142-.257 1.142-.851z" />
                  <path style="fill:#a13243"
                    d="M171.996 98.416a1.378 1.378 0 0 1 1.137-2.158h2.705a3.735 3.735 0 0 1 2.317-2.169c.566-.182 1.141.255 1.141.85v1.559c0-.595-.575-1.032-1.141-.85a3.728 3.728 0 0 0-2.317 2.169h-2.705c-.473 0-.89.237-1.137.599z" />
                  <ellipse style="fill:#e27c8d" cx="178.243" cy="99.634" rx=".525" ry=".794" />
                </g>
                <g>
                  <path style="fill:#dc4355"
                    d="m158.131 122.535-5.376.441c-.592.049-1.076-.49-.941-1.069a3.735 3.735 0 0 1 1.972-2.487l-.221-2.695a1.378 1.378 0 1 1 2.748-.226l.221 2.695a3.733 3.733 0 0 1 2.351 2.133c.228.549-.162 1.159-.754 1.208z" />
                  <path style="fill:#a13243"
                    d="M155.649 115.413a1.377 1.377 0 0 0-2.057 1.309l.221 2.696a3.732 3.732 0 0 0-1.972 2.487c-.135.579.348 1.117.941 1.068l1.553-.127c-.593.049-1.076-.489-.941-1.068a3.732 3.732 0 0 1 1.972-2.487l-.221-2.696a1.374 1.374 0 0 1 .504-1.182z" />
                  <ellipse transform="rotate(-4.692 157.303 121.49)" style="fill:#e27c8d" cx="157.373" cy="121.539"
                    rx=".794" ry=".525" />
                </g>
                <g>
                  <path style="fill:#dc4355"
                    d="m140.586 121.068-4.729-2.594c-.521-.286-.628-1.002-.196-1.411a3.738 3.738 0 0 1 3.016-.989l1.301-2.371a1.379 1.379 0 1 1 2.418 1.326l-1.301 2.371c.703.852.997 1.983.787 3.075-.114.585-.775.879-1.296.593z" />
                  <path style="fill:#a13243"
                    d="M142.439 113.758a1.378 1.378 0 0 0-2.439-.041l-1.301 2.371a3.731 3.731 0 0 0-3.016.989c-.432.408-.325 1.123.196 1.41l1.366.75c-.521-.286-.628-1.001-.196-1.41a3.734 3.734 0 0 1 3.016-.989l1.301-2.371a1.374 1.374 0 0 1 1.073-.709z" />
                  <ellipse transform="rotate(-61.249 140.506 119.825)" style="fill:#e27c8d" cx="140.502" cy="119.821"
                    rx=".525" ry=".794" />
                </g>
              </g>
              <g>
                <path style="fill:#dc4355"
                  d="M494.29 162.27c-.97 9.35-3.39 19.29-7.78 29.73 0 0-36.26 61.66-57.38 75.54-3.12 2.05-5.91 3.06-8.2 2.68-4.1-.68-27.33-4.78-27.33-4.78l-4.76-59.43s.22-1.93.33-4.93v-.04c.11-3.08.11-7.27-.36-11.64-.03-.29-.06-.59-.1-.88-1.34-11.09-5.79-22.95-18.98-20.69-.5.08-1.02.19-1.55.32-1.98.48-4.15 1.26-6.51 2.38l-8.88 7.49-27.67 23.33s-2.42-4.31-5.07-10.47c-3.36-7.82-7.1-18.65-6.72-27.44 0 0-1.59-2.37-3.88-5.98-.25-.4-.51-.81-.78-1.24l-.01-.01c-.27-.43-.54-.87-.83-1.32-.14-.23-.29-.46-.43-.7-.23-.38-.47-.76-.71-1.15-.8-1.3-1.64-2.68-2.48-4.09-.41-.69-.82-1.39-1.23-2.1-3.36-5.75-6.68-11.92-8.45-16.6-.16-.43-.31-.85-.45-1.26-.59-1.73-.91-3.19-.87-4.28l.01-.01v-.01c.04-.19.4-1.79.76-4.19.3-2.01.6-4.57.71-7.32-.01-.01 0-.01 0-.01.23-5.43-.26-11.62-2.87-15.82l-27.5-5.94-5.64 18.95v.01s-.7-.97-1.8-2.65c-.23-.36-.49-.75-.76-1.17 0-.01-.01-.02-.02-.03-.26-.42-.54-.86-.83-1.33-.19-.32-.4-.66-.61-1-.31-.52-.63-1.06-.96-1.63-.11-.19-.22-.38-.33-.58-.45-.77-.9-1.59-1.36-2.45-.22-.42-.45-.86-.69-1.3-.11-.23-.23-.45-.34-.68-.23-.45-.46-.91-.69-1.37-.23-.47-.45-.94-.68-1.42-.33-.72-.67-1.45-.99-2.2-.11-.25-.21-.5-.32-.75-.42-1-.83-2.02-1.22-3.06-.09-.26-.19-.52-.28-.78-.19-.52-.37-1.04-.54-1.57-.08-.26-.17-.52-.25-.79-.17-.53-.32-1.05-.47-1.59-2.41-8.56-2.59-17.43 3.24-23.52 0 0 5.5-10.54 22.99-19.92.49-.26.99-.52 1.5-.79.77-.4 1.56-.79 2.37-1.17.54-.26 1.09-.51 1.65-.77.56-.26 1.13-.51 1.72-.76 4.07-1.75 8.63-3.4 13.74-4.87.37-.11.74-.21 1.11-.31 12.81-3.53 28.97-5.86 49.23-5.64.89.01 1.79.03 2.7.05.91.02 1.83.04 2.75.07 1.85.06 3.73.14 5.65.25.79.03 1.58.08 2.38.13.55.03 1.1.07 1.65.11.6.04 1.2.08 1.81.13 2.04.15 4.11.32 6.22.52 2.2.21 4.45.45 6.73.71 5.09.59 10.37 1.32 15.86 2.2 0 0 51.9 2.73 73.76 48.5 0 0 36.92 33.04 31.69 83.33z" />
                <path style="fill:#af3d4f"
                  d="m352.785 178.019-27.667 23.332s-12.471-22.205-11.784-37.914c0 0-25.382-31.659-25.085-39.938 0 0 9.202-17.107 3.566-26.155l-27.493-5.933-5.636 18.957s-24.941-34.153-9.909-49.872c0 0 21.918-42.012 117.471-32.964-13.186 25.526-31.856 78.195-13.463 150.487z" />
                <path style="fill:#e8b88f"
                  d="M434.248 293.451c-24.254 2.387-111.692 84.363-111.692 84.363-7.931-8.484-27.247-41.705-34.635-54.606a11.029 11.029 0 0 0-8.351-5.503c-9.745-1.096-27.021-4.488-33.948-5.892-3.238-.646-6.292-2.09-8.669-4.375-8.003-7.726-1.834-18.086-1.834-18.086 2.726-6.148 0-20.156 0-20.156-3.074-1.711-3.074-6.148-3.074-6.148-.687-6.148 13.997-8.884 13.997-8.884 2.213-.902 3.187-2.111 3.545-3.259.553-1.773-.717-3.607-2.562-3.853l-10.544-1.424c-8.884-3.074-3.412-10.247-3.412-10.247l.523-9.704c.082-1.522-1.141-2.817-2.664-2.777-9.892.264-15.627-2.89-15.627-2.89-10.247-6.835-3.074-18.783-3.074-18.783l21.293-26.54c1.547-1.926 3.115-3.853 4.919-5.533 3.105-2.879 3.976-7.736 4.191-11.077a18.316 18.316 0 0 0-.461-5.339c-1.66-7.091.277-13.393 1.619-16.59.492-1.189 1.189-2.275 2.008-3.259 5.195-6.281 9.304-19.961 9.304-19.961.512-12.296 9.222-21.519 9.222-21.519 17.42 3.074 31.766 0 31.766 0 5.287 8.023-1.199 21.344-1.199 21.344-4.785 9.222.687 19.469.687 19.469l20.832 30.065c.338 26.294 13.321 34.153 13.321 34.153 2.049-9.909 34.501-27.329 34.501-27.329 25.956-10.923 24.593 23.568 24.593 23.568l.676 16.395 8.546 49.534c11.948 9.222 31.417 5.462 31.417 5.462-2.387 19.134 4.786 29.381 4.786 29.381z" />
                <path style="fill:#e7aa70"
                  d="M370.522 172.148c9.232-.143 9.755 10.892 9.755 10.892 5.123 10.882-5.462 24.972-5.462 24.972-1.711 6.148-23.23 17.082-23.23 17.082-5.574 3.484-10.524-.605-13.116-3.576-.779-.891-2.254-.389-2.326.799-.891 14.428 13.741 7.255 13.741 7.255 11.61.348 26.294-15.37 26.294-15.37 12.583-7.142 12.614-24.05 12.614-24.214.994-23.537-14.715-22.994-14.715-22.994-19.531 1.64-18.045 19.889-18.045 19.889-.447 4.585 3.39 4.967 5.103 4.912a.808.808 0 0 0 .779-.829c-.161-12.729 8.608-18.818 8.608-18.818z" />
                <path style="fill:#e7aa70"
                  d="M355.567 197.944c-1.076 2.237-3.448 4.65-8.418 6.354 0 0-4.782 5.807 0 7.173 0 0 9.564-3.074 10.93 0 0 0 4.341 2.391 4.391-6.49l-3.492-7.038c-.702-1.413-2.727-1.421-3.411.001z" />
                <path style="fill:#556aac"
                  d="M492.88 353.23c-30.27 73.69-93.94 130.14-172.16 150.51a253.368 253.368 0 0 1-32.67 6.27c-8.78 1.1-17.7 1.75-26.74 1.93l20.26-64.11c.07-.38.15-.77.23-1.15 4.87-23.45 20.37-47.66 39.73-70.03 32.13-37.11 74.9-69.15 97.43-84.24a17.876 17.876 0 0 1 13.34-2.72c4.54.85 8.75 3.43 11.56 7.53l19.42 28.33c10.91 9.23 20.74 18.49 29.6 27.68z" />
                <path style="fill:#485a8a"
                  d="M261.31 511.94c9.04-.18 17.96-.83 26.74-1.93 11.13-1.39 22.03-3.49 32.67-6.27l17.67-55.91c9.94-51.53 71.83-106.93 113.72-138.53l-8.29-12.08a18.093 18.093 0 0 0-6.61-5.85c-.26-.12-.52-.25-.79-.38a18.16 18.16 0 0 0-4.11-1.29s0-.01-.01-.01a17.876 17.876 0 0 0-6.57-.03c-.89.16-1.77.38-2.63.68-1.45.49-2.84 1.18-4.17 2.07-22.53 15.09-65.28 47.11-97.41 84.22-19.35 22.34-34.85 46.54-39.73 69.98-.09.41-.17.81-.25 1.22l-20.26 64.11h.03z" />
                <path style="fill:#e7aa70"
                  d="M372.315 262.321c-13.669 19.121-49.769 58.92-84.394 60.887a11.029 11.029 0 0 0-8.351-5.503s57.936-29.921 89.814-58.028c1.763-1.568 4.304.717 2.931 2.644z" />
              </g>
              <g>
                <path style="fill:#dc4355"
                  d="m243.322 418.912 3.773-3.459c.416-.381.353-1.065-.137-1.345a3.542 3.542 0 0 0-3.003-.23l-1.734-1.892a1.308 1.308 0 1 0-1.929 1.769l1.734 1.892a3.547 3.547 0 0 0-.031 3.012c.235.512.911.634 1.327.253z" />
                <path style="fill:#a13243"
                  d="M239.962 412.593a1.309 1.309 0 0 1 2.239-.589l1.735 1.892a3.542 3.542 0 0 1 3.003.23c.49.279.553.962.137 1.344l-1.09 1c.416-.381.353-1.065-.137-1.344a3.542 3.542 0 0 0-3.003-.23l-1.735-1.892a1.302 1.302 0 0 0-1.149-.411z" />
                <ellipse transform="rotate(-42.515 243.137 417.75)" style="fill:#e27c8d" cx="243.117" cy="417.743"
                  rx=".754" ry=".498" />
                <path style="fill:#dc4355"
                  d="m250.908 385.853-2.57-4.427c-.283-.488-.965-.573-1.343-.154a3.542 3.542 0 0 0-.869 2.884l-2.219 1.288a1.308 1.308 0 1 0 1.313 2.263l2.219-1.288a3.543 3.543 0 0 0 2.935.676c.553-.12.817-.754.534-1.242z" />
                <path style="fill:#a13243"
                  d="M244.015 387.779a1.307 1.307 0 0 1-.095-2.312l2.22-1.289a3.542 3.542 0 0 1 .869-2.884c.378-.419 1.058-.334 1.342.154l.743 1.279c-.283-.488-.964-.573-1.342-.154a3.542 3.542 0 0 0-.869 2.884l-2.22 1.289a1.298 1.298 0 0 0-.648 1.033z" />
                <ellipse transform="rotate(-30.131 249.748 385.82)" style="fill:#e27c8d" cx="249.722" cy="385.802"
                  rx=".498" ry=".754" />
                <path style="fill:#dc4355"
                  d="m242.71 375.502-4.538-2.368c-.5-.261-1.122.031-1.217.587a3.546 3.546 0 0 0 .807 2.902l-1.187 2.275a1.308 1.308 0 1 0 2.32 1.21l1.187-2.275a3.543 3.543 0 0 0 2.842-.997c.402-.396.286-1.073-.214-1.334z" />
                <path style="fill:#a13243"
                  d="M237.913 380.814a1.308 1.308 0 0 1-1.317-1.903l1.188-2.276a3.543 3.543 0 0 1-.807-2.902c.095-.556.716-.848 1.216-.587l1.311.684c-.5-.261-1.121.031-1.216.587a3.543 3.543 0 0 0 .807 2.902l-1.188 2.276c-.207.397-.19.852.006 1.219z" />
                <ellipse transform="rotate(-62.439 241.677 376.098)" style="fill:#e27c8d" cx="241.68" cy="376.093"
                  rx=".498" ry=".754" />
                <path style="fill:#dc4355"
                  d="m204.025 409.575 2.906 4.214c.32.464 1.007.496 1.351.049a3.542 3.542 0 0 0 .642-2.943l2.113-1.457a1.308 1.308 0 1 0-1.486-2.154l-2.113 1.457a3.545 3.545 0 0 0-2.979-.446c-.54.162-.755.815-.434 1.28z" />
                <path style="fill:#a13243"
                  d="M210.747 407.119a1.308 1.308 0 0 1 .275 2.298l-2.113 1.457a3.538 3.538 0 0 1-.642 2.943c-.344.447-1.029.415-1.35-.049l-.84-1.218c.32.465 1.006.496 1.35.049a3.538 3.538 0 0 0 .642-2.943l2.113-1.457c.369-.254.567-.664.565-1.08z" />
                <ellipse transform="rotate(-34.591 205.22 409.55)" style="fill:#e27c8d" cx="205.211" cy="409.533"
                  rx=".498" ry=".754" />
                <path style="fill:#dc4355"
                  d="m211.097 377.616-4.043 3.139c-.446.346-.439 1.033.027 1.351a3.541 3.541 0 0 0 2.974.475l1.574 2.027a1.308 1.308 0 1 0 2.067-1.605l-1.574-2.027a3.542 3.542 0 0 0 .277-2.999c-.193-.53-.857-.707-1.302-.361z" />
                <path style="fill:#a13243"
                  d="M213.927 384.189a1.308 1.308 0 0 1-2.279.404l-1.574-2.028a3.541 3.541 0 0 1-2.974-.475c-.466-.318-.473-1.004-.027-1.35l1.168-.907c-.446.346-.439 1.032.027 1.35a3.541 3.541 0 0 0 2.974.475l1.574 2.028c.275.354.696.529 1.111.503z" />
                <ellipse transform="rotate(-37.824 211.175 378.791)" style="fill:#e27c8d" cx="211.205" cy="378.798"
                  rx=".754" ry=".498" />
                <circle style="fill:#c60053" cx="227.304" cy="397.565" r="20.634" />
                <path style="fill:#970a4b"
                  d="M230.653 416.529c-2.953-1.269-4.027-4.919-2.254-7.6a20.534 20.534 0 0 0 3.41-11.365A20.54 20.54 0 0 0 228.4 386.2c-1.773-2.681-.699-6.332 2.254-7.601l.063-.027a20.38 20.38 0 0 1 2.334-.831 20.638 20.638 0 0 0-5.747-.811c-2.867 0-5.598.585-8.078 1.642-7.382 3.143-12.556 10.463-12.556 18.992 0 8.529 5.175 15.849 12.556 18.993a20.556 20.556 0 0 0 8.078 1.642c1.995 0 3.923-.283 5.747-.811a20.258 20.258 0 0 1-2.334-.831l-.064-.028z" />
                <g>
                  <circle style="fill:#dc4355" cx="215.388" cy="397.539" r="4.021" />
                  <path style="fill:#a13243"
                    d="M216.467 401.414a4.022 4.022 0 1 1 0-7.749 4.021 4.021 0 0 0 0 7.749z" />
                  <circle style="fill:#e27c8d" cx="217.636" cy="396.978" r="1.169" />
                </g>
                <g>
                  <circle style="fill:#dc4355" cx="237.512" cy="397.565" r="4.021" />
                  <path style="fill:#a13243" d="M238.591 401.44a4.022 4.022 0 1 1 0-7.749 4.021 4.021 0 0 0 0 7.749z" />
                  <circle style="fill:#e27c8d" cx="239.76" cy="397.004" r="1.169" />
                </g>
                <g>
                  <circle style="fill:#dc4355" cx="226.583" cy="385.802" r="2.778" />
                  <path style="fill:#a13243" d="M227.328 388.479a2.779 2.779 0 1 1 0-5.355 2.78 2.78 0 0 0 0 5.355z" />
                  <circle style="fill:#e27c8d" cx="228.136" cy="385.414" r=".808" />
                </g>
                <g>
                  <circle style="fill:#dc4355" cx="227.273" cy="409.533" r="2.778" />
                  <path style="fill:#a13243" d="M228.019 412.21a2.779 2.779 0 1 1 0-5.355 2.78 2.78 0 0 0 0 5.355z" />
                  <circle style="fill:#e27c8d" cx="228.826" cy="409.146" r=".808" />
                </g>
                <g>
                  <path style="fill:#dc4355"
                    d="m226.26 371.369-5.015 1.023c-.553.113-.851.732-.574 1.223a3.545 3.545 0 0 0 2.456 1.744l.513 2.514a1.308 1.308 0 1 0 2.564-.524l-.513-2.514a3.546 3.546 0 0 0 1.577-2.567c.062-.559-.455-1.012-1.008-.899z" />
                  <path style="fill:#a13243"
                    d="M225.887 378.516a1.309 1.309 0 0 1-2.223-.647l-.513-2.515a3.54 3.54 0 0 1-2.456-1.743c-.277-.492.021-1.11.574-1.223l1.449-.296c-.553.113-.851.731-.574 1.223a3.54 3.54 0 0 0 2.456 1.743l.513 2.515c.09.439.39.782.774.943z" />
                  <ellipse transform="rotate(-11.536 225.836 372.537)" style="fill:#e27c8d" cx="225.834" cy="372.476"
                    rx=".754" ry=".498" />
                </g>
                <g>
                  <path style="fill:#dc4355"
                    d="m202.75 391.275-.666 5.075c-.073.559.415 1.043.97.941a3.546 3.546 0 0 0 2.449-1.755l2.545.334a1.31 1.31 0 0 0 .341-2.595l-2.545-.334a3.542 3.542 0 0 0-1.913-2.327c-.511-.24-1.107.102-1.181.661z" />
                  <path style="fill:#a13243"
                    d="M209.386 393.956a1.308 1.308 0 0 1-1.336 1.89l-2.545-.334a3.542 3.542 0 0 1-2.448 1.755c-.555.102-1.042-.381-.969-.941l.192-1.467c-.073.56.414 1.042.969.941a3.54 3.54 0 0 0 2.448-1.755l2.545.334c.445.059.867-.113 1.144-.423z" />
                  <ellipse transform="rotate(-82.525 203.66 392.04)" style="fill:#e27c8d" cx="203.659" cy="392.039"
                    rx=".754" ry=".498" />
                </g>
                <g>
                  <path style="fill:#dc4355"
                    d="M252.907 402.245v-5.119c0-.564-.547-.98-1.084-.807a3.542 3.542 0 0 0-2.199 2.058h-2.566a1.308 1.308 0 1 0 0 2.616h2.566a3.542 3.542 0 0 0 2.199 2.058c.537.174 1.084-.242 1.084-.806z" />
                  <path style="fill:#a13243"
                    d="M245.979 400.45a1.307 1.307 0 0 1 1.078-2.048h2.567a3.542 3.542 0 0 1 2.199-2.058c.537-.173 1.083.242 1.083.807v1.479c0-.564-.546-.98-1.083-.807a3.54 3.54 0 0 0-2.199 2.058h-2.567c-.448 0-.844.226-1.078.569z" />
                  <ellipse style="fill:#e27c8d" cx="251.907" cy="401.606" rx=".498" ry=".754" />
                </g>
                <g>
                  <path style="fill:#dc4355"
                    d="m232.821 423.338-5.101.419c-.562.046-1.021-.465-.893-1.014a3.542 3.542 0 0 1 1.871-2.36l-.21-2.558a1.309 1.309 0 0 1 2.608-.214l.21 2.558a3.542 3.542 0 0 1 2.231 2.024c.216.52-.154 1.099-.716 1.145z" />
                  <path style="fill:#a13243"
                    d="M230.466 416.58a1.308 1.308 0 0 0-1.953 1.242l.21 2.558a3.543 3.543 0 0 0-1.872 2.36c-.128.549.33 1.06.893 1.014l1.474-.121c-.562.046-1.021-.464-.893-1.014a3.54 3.54 0 0 1 1.872-2.36l-.21-2.558a1.3 1.3 0 0 1 .479-1.121z" />
                  <ellipse transform="rotate(-4.692 231.994 422.213)" style="fill:#e27c8d" cx="232.102" cy="422.394"
                    rx=".754" ry=".498" />
                </g>
                <g>
                  <path style="fill:#dc4355"
                    d="m216.17 421.947-4.488-2.462c-.495-.271-.596-.951-.186-1.339a3.544 3.544 0 0 1 2.862-.938l1.234-2.25a1.308 1.308 0 0 1 2.294 1.258l-1.234 2.25c.667.809.946 1.882.747 2.918-.107.555-.734.834-1.229.563z" />
                  <path style="fill:#a13243"
                    d="M217.929 415.01a1.307 1.307 0 0 0-2.314-.039l-1.235 2.25a3.543 3.543 0 0 0-2.862.938c-.41.388-.309 1.066.186 1.338l1.297.711c-.495-.271-.596-.95-.186-1.338a3.544 3.544 0 0 1 2.862-.938l1.235-2.25a1.3 1.3 0 0 1 1.017-.672z" />
                  <ellipse transform="rotate(-61.249 216.097 420.777)" style="fill:#e27c8d" cx="216.091" cy="420.763"
                    rx=".498" ry=".754" />
                </g>
              </g>
              <path style="fill:#8dc1f6"
                d="m370.791 166.968-65.749 52.877a6.582 6.582 0 0 1-8.249-10.257l65.749-52.877a6.581 6.581 0 0 1 8.249 10.257z" />
              <path style="fill:#fff"
                d="M275.586 199.174c-7.641 0-15.204-2.587-20.746-7.846-4.854-4.606-13.851-7.7-24.148-7.7-15.445 0-27.966 6.96-27.966 15.546a9 9 0 0 0 .559 3.098l14.659 81.305c3.951 21.915 24.874 36.514 46.807 32.66l12.377-2.175c23.884-4.198 41.302-24.944 41.302-49.195v-58.681a7.013 7.013 0 0 0-7.013-7.013h-35.831z" />
              <path style="fill:#cacbcc"
                d="M305.784 260.279a7.192 7.192 0 0 0-8.871-4.973l-57.327 16.143c-.078.022-.145.063-.222.087l-5.423-30.071 55.355-15.588a7.191 7.191 0 0 0-3.898-13.844l-54.021 15.212-4.503-24.97a9.125 9.125 0 0 1-.551-3.099c0-6.23 6.607-11.61 16.125-14.096-3.587-.928-7.567-1.447-11.767-1.447-15.433 0-27.955 6.953-27.955 15.543 0 1.054.189 2.092.551 3.099l14.662 81.301c3.949 21.914 24.872 36.513 46.801 32.659l5.459-.96c-13.738-3.932-24.829-15.042-28.234-29.734a7.198 7.198 0 0 0 1.52-.25l57.327-16.143a7.188 7.188 0 0 0 4.972-8.869z" />
              <path
                style="fill:none;stroke:#fff;stroke-width:10;stroke-linecap:round;stroke-linejoin:round;stroke-miterlimit:10"
                d="m171.221 272.875 25.316-18.375-56.776-65.096M123.227 176.18l7.659 24.209M148.619 178.273l-25.311-2.011M231.349 329.968 207.738 311l-63.564 37.935M129.66 364.35l24.747-5.683M133.793 339.209l-4.045 25.066" />
              <path
                style="fill:none;stroke:#e7aa70;stroke-width:10;stroke-linecap:round;stroke-linejoin:round;stroke-miterlimit:10"
                d="M248.5 141s19.5-7.218 33.5 6.391" />
              <circle style="fill:#e7aa70" cx="260.578" cy="161" r="9" />
            </svg>