<svg xmlns="http://www.w3.org/2000/svg" width="128" height="128">
              <path fill="#99e6fc" d="m50.884 91.386-1.427 12.982h-9.192l-1.426-12.982h12.045z" />
              <path
                d="M56.528 34.326v52.06a5 5 0 0 1-5 5H38.194a5 5 0 0 1-5-5v-52.06zM40.491 12.676h8.741V27.23h-8.741z"
                fill="#dff6fd" />
              <path
                d="M55.607 12.676H34.116V8.807a2.5 2.5 0 0 1 2.5-2.5h16.491a2.5 2.5 0 0 1 2.5 2.5zM56.528 34.326H33.194l-5.642-7.096h34.619l-5.643 7.096z"
                fill="#99e6fc" />
              <circle cx="82.869" cy="64" r="17.579" fill="#f07281" />
              <path fill="#dff6fd"
                d="M92.258 60.924h-6.312v-6.312h-6.153v6.312h-6.312v6.152h6.312v6.312h6.153v-6.312h6.312v-6.152z" />
              <g>
                <path
                  d="M33.194 76.659a1.749 1.749 0 0 0 1.75-1.75v-4.5a1.75 1.75 0 1 0-3.5 0v4.5a1.749 1.749 0 0 0 1.75 1.75zM42.718 81.724h4.288a1.75 1.75 0 0 0 0-3.5h-4.288a1.75 1.75 0 0 0 0 3.5zM42.718 70.311h4.288a1.75 1.75 0 0 0 0-3.5h-4.288a1.75 1.75 0 0 0 0 3.5zM42.718 58.9h4.288a1.75 1.75 0 0 0 0-3.5h-4.288a1.75 1.75 0 0 0 0 3.5zM42.718 47.488h4.288a1.75 1.75 0 0 0 0-3.5h-4.288a1.75 1.75 0 0 0 0 3.5z" />
                <path
                  d="M63.541 28.318a1.75 1.75 0 0 0-1.37-2.839h-11.19V14.426h4.625a1.749 1.749 0 0 0 1.75-1.75V8.807a4.254 4.254 0 0 0-4.25-4.25h-16.49a4.254 4.254 0 0 0-4.25 4.25v3.869a1.749 1.749 0 0 0 1.75 1.75h4.625v11.053H27.552a1.75 1.75 0 0 0-1.37 2.839l5.262 6.619v25.818a1.75 1.75 0 1 0 3.5 0V36.076h19.834v50.31a3.254 3.254 0 0 1-3.25 3.25H38.194a3.254 3.254 0 0 1-3.25-3.25v-2.239a1.75 1.75 0 1 0-3.5 0v2.239a6.756 6.756 0 0 0 5.819 6.678l1.263 11.5a1.751 1.751 0 0 0 1.74 1.558h2.845v15.575a1.75 1.75 0 0 0 3.5 0v-15.579h2.846a1.749 1.749 0 0 0 1.743-1.558l1.264-11.5a6.755 6.755 0 0 0 5.818-6.678V34.937zm-21.707 74.3-1.042-9.482h8.139l-1.042 9.482zM35.866 8.807a.752.752 0 0 1 .75-.75h16.49a.752.752 0 0 1 .75.75v2.119h-17.99zm6.375 5.619h5.24v11.053h-5.24zm16.3 14.553-2.86 3.6H34.039l-2.86-3.6zM101.228 57.939a1.75 1.75 0 1 0-3.324 1.1 15.843 15.843 0 1 1-4.242-6.614 1.75 1.75 0 0 0 2.387-2.559 19.274 19.274 0 1 0 5.179 8.077z" />
                <path
                  d="M79.793 75.139h6.152a1.75 1.75 0 0 0 1.75-1.75v-4.563h4.563a1.749 1.749 0 0 0 1.75-1.75v-6.152a1.749 1.749 0 0 0-1.75-1.75H87.7v-4.563a1.75 1.75 0 0 0-1.75-1.75h-6.157a1.75 1.75 0 0 0-1.75 1.75v4.563h-4.562a1.75 1.75 0 0 0-1.75 1.75v6.152a1.75 1.75 0 0 0 1.75 1.75h4.562v4.563a1.75 1.75 0 0 0 1.75 1.75zm-4.562-9.813v-2.652h4.562a1.749 1.749 0 0 0 1.75-1.75v-4.563H84.2v4.563a1.749 1.749 0 0 0 1.75 1.75h4.563v2.652h-4.568a1.749 1.749 0 0 0-1.75 1.75v4.563h-2.652v-4.563a1.749 1.749 0 0 0-1.75-1.75z" />
              </g>
            </svg>